<?xml version="1.0" encoding="UTF-8" standalone="no"?>
<!-- Created with Inkscape (http://www.inkscape.org/) -->

<svg
   xmlns:dc="http://purl.org/dc/elements/1.1/"
   xmlns:cc="http://creativecommons.org/ns#"
   xmlns:rdf="http://www.w3.org/1999/02/22-rdf-syntax-ns#"
   xmlns:svg="http://www.w3.org/2000/svg"
   xmlns="http://www.w3.org/2000/svg"
   xmlns:sodipodi="http://sodipodi.sourceforge.net/DTD/sodipodi-0.dtd"
   xmlns:inkscape="http://www.inkscape.org/namespaces/inkscape"
   width="744.09448819"
   height="1052.3622047"
   id="svg3875"
   version="1.1"
   inkscape:version="0.48.3.1 r9886"
   sodipodi:docname="addModule.svg"
   inkscape:export-filename="/home/enrico/development/java/cdv/swing/src/main/resources/org/cdv/swing/addModule.png"
   inkscape:export-xdpi="5.2531958"
   inkscape:export-ydpi="5.2531958">
  <defs
     id="defs3877" />
  <sodipodi:namedview
     id="base"
     pagecolor="#ffffff"
     bordercolor="#666666"
     borderopacity="1.0"
     inkscape:pageopacity="0"
     inkscape:pageshadow="2"
     inkscape:zoom="0.98994949"
     inkscape:cx="375"
     inkscape:cy="748.57143"
     inkscape:document-units="px"
     inkscape:current-layer="layer1"
     showgrid="false"
     inkscape:window-width="935"
     inkscape:window-height="805"
     inkscape:window-x="485"
     inkscape:window-y="198"
     inkscape:window-maximized="0" />
  <metadata
     id="metadata3880">
    <rdf:RDF>
      <cc:Work
         rdf:about="">
        <dc:format>image/svg+xml</dc:format>
        <dc:type
           rdf:resource="http://purl.org/dc/dcmitype/StillImage" />
        <dc:title></dc:title>
      </cc:Work>
    </rdf:RDF>
  </metadata>
  <g
     inkscape:label="Layer 1"
     inkscape:groupmode="layer"
     id="layer1">
    <path
       style="fill:#008080;fill-opacity:1"
       id="path4403"
       d="m 145.26989,10.656634 c 1.35736,3.86829 3.15115,7.551832 4.71237,11.33856 2.17662,5.503256 4.85052,10.787917 7.16583,16.229514 2.20168,4.849419 4.31002,9.735416 6.23499,14.701225 2.19147,4.650164 3.3249,9.548699 3.92311,14.62353 0.49219,5.094267 1.17384,10.157401 1.50279,15.266613 0.36188,5.315913 0.36863,10.646964 0.38546,15.972533 -0.0161,6.279401 -0.0514,12.558881 -0.0889,18.838251 0.20989,7.54162 -0.78977,14.99245 -2.06892,22.3998 -1.42504,7.53442 -3.45711,14.93361 -4.88089,22.46794 -1.31306,7.07228 -3.0493,14.0563 -4.36755,21.1272 -1.27985,6.91511 -3.01788,13.72951 -4.69369,20.55512 -2.04057,6.99081 -3.05847,14.16957 -3.60216,21.41182 -0.11681,5.98356 -0.67848,11.9339 -1.16192,17.89438 -0.24255,5.57282 -0.64554,11.12222 -1.17419,16.67473 -0.61927,5.75354 -1.85028,11.40691 -3.11805,17.04421 -1.04382,5.22693 -2.36115,10.39333 -3.46305,15.60726 -1.13696,4.86451 -2.00569,9.78514 -3.19431,14.63749 -1.23723,4.32299 -1.76146,8.79052 -2.5517,13.20447 -0.7149,3.86965 -1.0075,7.78961 -1.14531,11.71614 -0.009,3.50076 -0.62441,6.97125 -1.42009,10.36981 -0.78278,2.92439 -1.15942,5.91968 -1.35767,8.93294 -0.11411,3.24851 -0.10661,6.48232 -0.53085,9.70894 -0.49877,3.35197 -0.77133,6.72821 -0.92071,10.11179 -0.0176,3.25676 -0.7125,6.45981 -1.4719,9.61147 -0.55033,2.89546 -1.31649,5.7218 -2.24221,8.51754 -0.94551,2.73225 -1.90954,5.45084 -3.03006,8.11728 -0.83231,2.61746 -2.18787,5.00503 -3.32401,7.48984 -0.95523,2.14598 -1.99361,4.25165 -3.02111,6.36316 -0.61425,1.3811 -0.26957,0.71112 -1.03338,2.01028 0,0 -19.45969,8.2344 -19.45969,8.2344 l 0,0 c 1.02805,-0.78257 0.58055,-0.31487 1.3287,-1.41619 0.79509,-2.2241 2.02897,-4.2717 3.08915,-6.37611 0.94536,-2.59674 2.5314,-4.87829 3.36383,-7.51338 1.06715,-2.65818 2.22941,-5.27006 3.01465,-8.0324 1.12003,-2.68018 1.89188,-5.49986 2.44493,-8.34679 0.75952,-3.02174 1.50245,-6.09537 1.61207,-9.21748 0.14485,-3.44873 0.41595,-6.88989 0.91101,-10.30791 0.40589,-3.17718 0.52463,-6.32024 0.50066,-9.5266 0.15521,-3.13462 0.44706,-6.2672 1.2575,-9.31101 0.83925,-3.27424 1.55368,-6.6092 1.62847,-10.00042 0.16378,-4.02459 0.39105,-8.05635 1.13046,-12.0239 0.76581,-4.4732 1.33251,-8.99186 2.54329,-13.3747 1.2713,-4.81751 2.09225,-9.72724 3.26906,-14.56707 1.04912,-5.2509 2.49013,-10.41662 3.48696,-15.68007 1.34342,-5.54967 2.56848,-11.12773 3.26145,-16.80233 0.51071,-5.54185 1.00935,-11.06894 1.15955,-16.63567 0.47098,-6.00028 1.27379,-11.96861 1.38127,-17.99395 0.55452,-7.32814 1.38126,-14.63637 3.4596,-21.7156 1.65308,-6.78856 3.40259,-13.5558 4.68749,-20.4269 1.32561,-7.09022 3.125,-14.07974 4.45113,-21.16964 1.40355,-7.54255 3.43288,-14.93857 4.93273,-22.46002 1.25401,-7.28892 2.43209,-14.60662 2.12029,-22.03829 -0.0301,-6.24557 -0.0462,-12.49116 -0.0877,-18.73666 -0.03,-5.28613 -0.0695,-10.574234 -0.33499,-15.854917 -0.34722,-5.07342 -1.0573,-10.101396 -1.48748,-15.164206 -0.54047,-4.898495 -1.55435,-9.661844 -3.70973,-14.136356 -1.92024,-4.952588 -3.87143,-9.888686 -6.04571,-14.737469 -2.28056,-5.451699 -5.02788,-10.695781 -7.29583,-16.15575 -1.60214,-3.703135 -3.34264,-7.333523 -5.10265,-10.964013 0,0 18.42768,-10.492435 18.42768,-10.492435 z"
       inkscape:connector-curvature="0" />
    <path
       style="fill:#008080;fill-opacity:1"
       id="path4405"
       d="m 146.787,19.672463 c 6.25329,2.014521 12.7641,3.022879 19.21561,4.17692 8.81384,1.481097 17.74263,1.999627 26.62921,2.853698 6.00567,0.557205 12.02113,0.745291 18.01039,1.455801 6.31836,0.670084 12.64087,1.329192 18.94336,2.142803 7.9292,0.841992 15.83341,1.891984 23.78063,2.560195 6.24128,0.485874 12.50288,0.563088 18.75966,0.603843 5.35627,0.02381 10.68182,0.754549 16.0295,1.074451 5.08645,0.261749 10.17971,0.29018 15.27144,0.311768 5.12445,-0.02381 10.24869,0.02758 15.3731,0.03712 6.6058,0.02103 13.21156,0.03414 19.81736,0.06263 7.05789,0.0076 14.11583,0.0087 21.17352,-0.05129 5.13513,-0.03741 10.27033,-0.05945 15.4056,-0.06148 5.1357,-0.006 10.27125,0.02806 15.40697,0.03748 5.72713,0.249304 11.41844,-0.4607 17.11462,-0.938796 4.0938,-0.08431 8.09068,-0.731974 12.12699,-1.323622 4.2569,-0.469558 8.46503,-1.257938 12.62991,-2.246591 3.56631,-0.966806 7.11137,-1.883732 10.78481,-2.376453 3.49345,-0.115653 6.8838,-0.956029 10.35172,-1.324093 3.27718,-1.001281 6.74972,-1.102745 10.04128,-1.975034 2.79781,-0.391334 5.38312,-1.394829 8.08867,-2.116252 2.27881,-0.337832 4.48829,-1.00527 6.65031,-1.80875 0,0 -16.74377,12.963532 -16.74377,12.963532 l 0,0 c -2.20115,0.564078 -4.36814,1.232234 -6.59391,1.703909 -2.65825,0.834507 -5.37904,1.348974 -8.10103,1.93827 -3.37198,0.562644 -6.7313,1.175491 -10.09334,1.791512 -3.44328,0.509682 -6.87685,1.052947 -10.34353,1.38308 -3.5883,0.615164 -7.05903,1.666519 -10.61427,2.433437 -4.22418,0.906235 -8.50048,1.553623 -12.77689,2.159575 -3.98992,0.592713 -7.98317,0.9013 -12.01499,1.068465 -5.72079,0.438306 -11.43366,0.983663 -17.18064,0.782228 -5.1701,0.0094 -10.34004,0.04337 -15.51012,0.03746 -5.07881,-0.002 -10.15755,-0.02376 -15.23621,-0.06159 -7.01093,-0.061 -14.02213,-0.05843 -21.03327,-0.05036 -6.6677,0.02969 -13.33539,0.04485 -20.00306,0.07353 -5.1595,0.01553 -10.31913,0.08503 -15.47854,0.02176 -5.09608,-0.04306 -10.19626,-0.104368 -15.28257,-0.448196 -5.30615,-0.352146 -10.59683,-1.015022 -15.92006,-1.018695 -6.23522,-0.08434 -12.47471,-0.245602 -18.6837,-0.86792 -7.92925,-0.815005 -15.83183,-1.869917 -23.76704,-2.631735 -6.40785,-0.691583 -12.82891,-1.256107 -19.23793,-1.931897 -5.87846,-0.685333 -11.79633,-0.891213 -17.66753,-1.661373 -8.85226,-0.96249 -17.74712,-1.564623 -26.5313,-3.085014 -6.82491,-1.091389 -13.6917,-2.101129 -20.37042,-3.917075 0,0 17.57946,-11.77725 17.57946,-11.77725 z"
       inkscape:connector-curvature="0" />
    <path
       style="fill:#008080;fill-opacity:1"
       id="path4409"
       d="m 122.42938,401.86675 c 10.89685,0.43827 21.83334,0.0434 32.71482,-0.60284 16.35463,-0.67591 32.57422,-2.79746 48.81479,-4.70396 8.22771,-0.69109 16.38976,-1.98482 24.6292,-2.52268 9.48507,-0.41359 18.98296,-0.35109 28.4748,-0.38609 11.07412,-0.15283 22.13606,-0.73163 33.2114,-0.96213 14.25655,-0.24331 28.51571,-0.20784 42.77358,-0.30984 11.30156,-0.3451 22.5863,0.24564 33.8739,0.6988 8.35661,0.84436 16.7629,1.07982 25.12215,1.85163 6.6567,0.63954 13.32368,0.99787 19.9683,1.74871 4.69048,0.70029 9.52179,1.10055 14.12123,2.29832 2.66418,0.47758 5.13452,1.57438 7.74206,2.21731 3.83442,1.28418 7.82346,2.02866 11.69747,3.16879 1.73473,0.54974 3.51111,0.92603 5.29471,1.27105 0,0 -17.19563,11.93682 -17.19563,11.93682 l 0,0 c -1.77222,-0.43111 -3.5352,-0.89314 -5.27679,-1.43769 -3.94303,-1.07088 -7.92534,-1.99034 -11.87475,-3.03714 -2.52671,-0.77796 -5.03416,-1.59925 -7.60508,-2.23413 -4.49572,-1.03724 -9.08316,-1.72663 -13.65852,-2.29621 -6.57024,-0.74557 -13.1716,-1.12916 -19.74595,-1.84263 -8.2821,-0.68149 -16.57657,-1.21602 -24.85587,-1.93864 -11.08975,-0.56108 -22.17702,-1.22933 -33.28852,-1.00643 -14.29785,-0.0384 -28.59704,0.0566 -42.89013,0.45421 -11.16841,0.36841 -22.32743,1.13491 -33.50429,1.1201 -9.5922,0.045 -19.19545,0.10208 -28.76803,0.77933 -8.00114,0.69063 -15.97999,1.61846 -23.9971,2.12888 -16.09162,1.51236 -32.15586,3.30907 -48.29837,4.22418 -11.51227,0.80666 -23.04177,1.35263 -34.57327,1.80172 0,0 17.09389,-12.41944 17.09389,-12.41944 z"
       inkscape:connector-curvature="0" />
    <path
       style="fill:#008080;fill-opacity:1"
       id="path4411"
       d="m 462.29251,28.409033 c -0.20492,4.335476 -0.21282,8.677808 -0.23952,13.017225 -0.009,5.843979 -0.0385,11.687846 -0.0544,17.531771 -0.0209,6.883196 -0.0461,13.766408 -0.0794,20.6496 0.0165,7.233502 -0.0331,14.467243 0.0535,21.700381 0.32109,5.57132 -0.27577,11.10362 -0.76188,16.64315 -0.40831,6.1904 -0.50858,12.38595 -1.02312,18.56983 -0.36296,7.00001 -1.22967,13.94638 -2.23638,20.87812 -1.14863,7.2482 -2.60632,14.44049 -3.99278,21.64526 -1.43858,7.7771 -3.80069,15.33601 -6.17636,22.86603 -2.57617,7.49418 -4.4618,15.19266 -6.61191,22.81192 -1.85381,6.37874 -3.40856,12.83395 -4.99601,19.28191 -1.58489,6.53817 -2.51664,13.20526 -3.57784,19.84078 -1.07895,7.09412 -1.97978,14.21307 -2.94343,21.32324 -1.40166,8.50837 -3.36386,16.91228 -5.11763,25.35232 -1.64836,7.80287 -2.20214,15.76052 -2.46972,23.71184 -0.19985,6.90491 -0.16337,13.81359 -0.12113,20.72037 0.25643,5.7613 0.73005,11.51792 2.00809,17.14905 1.00155,3.86397 1.91494,7.74755 2.84312,11.63019 0.58115,2.92079 1.32321,5.80469 2.39338,8.58325 0.73655,2.09921 1.73953,4.09759 2.76746,6.06805 0.88957,1.92708 1.86526,3.81228 2.85841,5.68987 0.78102,1.57968 1.48845,3.21428 2.35466,4.75025 0,0 -18.3083,10.53317 -18.3083,10.53317 l 0,0 c -0.85985,-1.55814 -1.59734,-3.19206 -2.37612,-4.79048 -0.99642,-1.88139 -1.97334,-3.77274 -2.86289,-5.70462 -1.06199,-2.04743 -2.09438,-4.13129 -2.83256,-6.31855 -1.06904,-2.8873 -1.86396,-5.87335 -2.40936,-8.9048 -0.84041,-3.92543 -1.81228,-7.81957 -2.65165,-11.74577 -1.25037,-5.80272 -1.73576,-11.7187 -2.02611,-17.64106 0.019,-6.94682 -0.005,-13.89494 0.17664,-20.83995 0.34598,-8.08394 0.88475,-16.18017 2.52672,-24.12273 1.785,-8.35838 3.58847,-16.71793 5.03351,-25.14247 0.93323,-7.10707 1.72966,-14.23087 2.8148,-21.31735 1.05785,-6.67296 1.97854,-13.37421 3.44068,-19.97579 1.66513,-6.47518 3.11663,-13.00396 5.07214,-19.40172 2.29266,-7.63103 4.1525,-15.38777 6.75609,-22.92717 2.32891,-7.44381 4.62042,-14.91614 6.13091,-22.5781 1.3229,-7.19144 2.85409,-14.34267 4.0294,-21.56175 0.95811,-6.88528 1.88564,-13.77052 2.21022,-20.72318 0.4614,-6.16187 0.60252,-12.32299 0.88863,-18.49522 0.35312,-5.52404 1.15132,-11.01929 0.95915,-16.56865 0.0859,-7.25133 0.0377,-14.503239 0.0535,-21.75493 -0.0333,-6.856227 -0.0585,-13.712474 -0.0794,-20.568705 -0.0159,-5.825442 -0.0457,-11.650827 -0.0544,-17.476325 -0.0264,-4.258018 -0.0313,-8.519272 -0.23952,-12.773142 0,0 18.87073,-9.615115 18.87073,-9.615115 z"
       inkscape:connector-curvature="0" />
    <path
       style="fill:#aa0000;fill-opacity:1"
       id="path4524"
       d="m 72.178223,30.322967 c -0.538195,3.333667 -0.03919,6.660256 0.437405,9.98361 0.649277,3.499527 2.293064,6.896016 3.51785,10.33725 1.291211,2.613798 2.019215,5.291471 2.821557,7.960715 0.80605,2.723573 1.655207,5.439848 2.52909,8.157448 0.601277,2.728937 1.541556,5.426668 2.226787,8.149179 0.36953,2.714089 1.207547,5.392139 1.831613,8.089409 0.556049,2.838173 0.71049,5.691978 0.755766,8.544976 0.0185,3.115756 -0.005,6.231533 0.01384,9.347276 0.03165,2.47053 0.07174,4.94101 0.09258,7.41159 0.01491,2.04363 0.01579,4.08729 0.01668,6.13093 3.27e-4,2.01475 -1.57e-4,4.0295 -3.86e-4,6.04425 -2.16e-4,2.01959 -2.58e-4,4.03918 -2.86e-4,6.05876 -0.297599,1.95541 -0.9992,3.89226 -1.58876,5.82818 -1.179736,2.65655 -1.474356,5.38963 -2.041027,8.098 -0.445318,3.13647 -2.712274,5.96033 -5.124011,8.74492 -1.738611,2.15344 -4.176422,4.10087 -5.92282,6.24753 -0.20592,0.27734 -0.411837,0.55469 -0.617755,0.83204 0,0 -24.063983,6.15608 -24.063983,6.15608 l 0,0 c 0.247029,-0.24846 0.494059,-0.49691 0.741091,-0.74537 1.434003,-2.32439 4.162786,-4.2319 6.103243,-6.42394 2.36325,-2.65678 4.950943,-5.28093 5.450975,-8.30332 0.737543,-2.70021 0.689964,-5.46017 1.804244,-8.13438 0.746351,-1.8351 0.770815,-3.74256 1.774455,-5.55463 -3.2e-5,-2.01953 -7.6e-5,-4.03906 -3.27e-4,-6.05859 -2.71e-4,-2.01466 -8.36e-4,-4.02932 -5.66e-4,-6.04398 8.84e-4,-2.04722 0.0017,-4.09446 0.01863,-6.14166 0.02399,-2.49051 0.07018,-4.98089 0.111805,-7.47132 0.02933,-3.10645 0.03308,-6.21336 -0.03217,-9.319636 -0.08053,-2.798102 -0.128297,-5.602426 -0.660847,-8.387733 -0.567921,-2.697127 -1.548284,-5.360441 -1.817182,-8.076516 -0.616309,-2.711068 -1.670548,-5.37988 -2.166486,-8.100196 -0.82412,-2.715584 -1.784563,-5.413197 -2.55364,-8.13389 -0.953806,-2.65788 -1.333814,-5.380914 -2.725307,-7.992486 -1.050131,-3.521263 -2.734425,-6.971806 -3.418117,-10.528488 -0.520558,-3.30087 -1.109339,-6.591117 -1.185635,-9.907096 0,0 23.671702,-6.798912 23.671702,-6.798912 z"
       inkscape:connector-curvature="0" />
    <path
       style="fill:#aa0000;fill-opacity:1"
       id="path4528"
       d="m 25.021834,79.457438 c 4.621741,2.127367 9.294913,3.443757 13.959804,4.860133 4.865596,1.497914 9.762844,2.083304 14.661387,2.302509 3.928442,0.151469 7.857189,0.118947 11.785914,0.105619 3.296397,-0.05104 6.592779,-0.09114 9.889195,-0.128755 3.046394,-0.04315 6.092308,0.0085 9.138577,0.06439 4.023584,0.02512 8.047288,0.09272 12.070866,0.06379 3.319768,0.0022 6.639303,-0.106329 9.958923,-0.172987 2.48231,-0.03493 4.9647,0.0028 7.44704,0.006 2.3287,-0.01196 4.65737,-0.03685 6.98607,-0.04997 2.04603,-0.01016 4.09207,-0.01113 6.1381,-0.01224 1.00827,-2.78e-4 2.01653,-2.21e-4 3.02479,-1.87e-4 0,0 -12.0203,21.69975 -12.0203,21.69975 l 0,0 c -1.00819,3e-5 -2.01638,8e-5 -3.02457,-1.9e-4 -2.04157,-8.2e-4 -4.08313,-0.001 -6.12469,-0.0125 -2.31025,-0.0125 -4.62047,-0.0381 -6.93071,-0.05 -2.484575,0.003 -4.969202,0.0409 -7.453745,0.006 -3.255702,-0.0669 -6.511334,-0.17647 -9.767201,-0.17316 -4.04705,-0.0295 -8.094229,0.0388 -12.141285,0.0634 -3.071188,0.0556 -6.142042,0.10795 -9.213352,0.0739 -3.259558,-0.0256 -6.519108,-0.0429 -9.778671,-0.0703 -3.925086,0.003 -7.851548,0.0341 -11.77516,-0.26227 -4.858142,-0.50633 -9.717522,-1.20752 -14.534655,-2.93455 -4.835585,-1.48453 -9.680849,-2.75934 -14.524523,-4.06169 0,0 12.228196,-21.317428 12.228196,-21.317428 z"
       inkscape:connector-curvature="0" />
    <path
       style="fill:#008080;fill-opacity:1"
       id="path4530"
       d="m 198.67545,87.827854 c 1.88357,0.909867 3.96712,1.196153 6.02609,1.392733 2.58966,0.106216 5.14597,0.162016 7.71076,0.544983 2.17422,0.358973 4.37202,0.501778 6.57163,0.573623 1.99126,0.138711 3.92631,0.656165 5.92667,0.848994 2.71945,0.207353 5.44843,0.218393 8.1741,0.242438 3.83531,-0.141513 7.63754,0.256137 11.45341,0.563332 5.06673,0.209138 10.11363,0.63239 15.16883,1.018367 5.71922,0.39501 11.45334,0.475527 17.18406,0.508328 3.88117,0.01358 7.76212,-0.03994 11.64312,-0.06952 3.52464,-0.0078 7.04906,0.03166 10.57366,0.04046 3.85944,0.01606 7.71876,-0.02081 11.57815,-0.02801 3.57645,-0.02845 7.15282,0.01576 10.72925,0.02533 4.1197,0.0062 8.23941,0.003 12.35911,0.0016 4.06337,0.15895 8.09749,-0.362604 12.14257,-0.653902 3.44033,-0.641449 6.96981,-0.764445 10.39928,-1.434613 2.78646,-0.567617 5.61157,-0.815859 8.44834,-0.921605 2.98169,-0.440648 5.97782,-0.752724 8.98437,-0.958547 2.12356,0.120089 4.11273,-0.563972 6.18127,-0.889771 2.08992,-0.209532 4.24797,-0.411876 6.22194,-1.168377 2.15197,-0.629309 4.35052,-1.153136 6.56022,-1.568273 0.41728,-0.06329 0.83455,-0.126571 1.25183,-0.189857 0,0 -11.8149,8.891704 -11.8149,8.891704 l 0,0 c -0.40508,0.07647 -0.81015,0.152944 -1.21523,0.229415 -2.19751,0.500036 -4.39205,1.029919 -6.54251,1.706159 -2.10449,0.443575 -4.22333,0.768359 -6.35307,1.060039 -2.04219,0.39907 -4.0743,0.697863 -6.16475,0.685519 -3.00538,0.219405 -5.98744,0.621894 -8.98433,0.92442 -2.80055,0.187064 -5.58285,0.51973 -8.34251,1.04194 -3.44396,0.4437 -6.8981,0.81978 -10.34536,1.23778 -4.06213,0.31438 -8.12113,0.71881 -12.20221,0.56304 -4.12114,-0.001 -8.24228,-0.005 -12.36342,0.002 -3.59962,0.01 -7.19919,0.0535 -10.79882,0.0252 -3.83434,-0.007 -7.66862,-0.044 -11.503,-0.0261 -3.56736,0.0108 -7.13447,0.053 -10.70186,0.0536 -3.79641,-0.0235 -7.59225,-0.0778 -11.38828,-0.13822 -5.73303,-0.10422 -11.46699,-0.24178 -17.19032,-0.60949 -5.1006,-0.34307 -10.19682,-0.69175 -15.30369,-0.92732 -3.85311,-0.26698 -7.70061,-0.483804 -11.56567,-0.36078 -2.78281,-0.0148 -5.57192,-0.0199 -8.34368,-0.298549 -1.97704,-0.225029 -3.91476,-0.725983 -5.91014,-0.751411 -2.21134,-0.126508 -4.41145,-0.362295 -6.59776,-0.722714 -2.55759,-0.323089 -5.13304,-0.232544 -7.69549,-0.511693 -2.23008,-0.290055 -4.42755,-0.780136 -6.48794,-1.709957 0,0 12.52628,-8.241842 12.52628,-8.241842 z"
       inkscape:connector-curvature="0" />
    <path
       style="fill:#008080;fill-opacity:1"
       id="path4532"
       d="m 208.96619,156.22446 c 7.79966,1.72269 15.80109,2.38006 23.7275,3.29714 8.84476,1.21941 17.67182,2.5568 26.511,3.81309 4.47089,0.65316 8.98691,0.81384 13.49769,0.88614 4.87013,-0.11228 9.71588,0.21835 14.57101,0.53811 4.77292,0.299 9.55511,0.39761 14.3361,0.4509 4.77836,0.0499 9.5571,0.0326 14.33565,0.0426 5.5297,0.0518 11.05964,0.021 16.58945,0.0184 4.05843,-0.007 8.11636,-0.0861 12.17466,-0.10106 3.02802,-0.34664 6.04206,-0.67574 9.04148,-1.21644 2.69501,-0.4051 5.38801,-0.53978 8.03151,-1.20321 1.88172,-0.47518 3.82183,-0.57369 5.75247,-0.63654 2.48165,-0.49416 4.99148,-0.75037 7.48242,-1.21108 2.51859,-0.28467 4.92969,-1.05464 7.42224,-1.48153 0.3605,-0.0461 0.72709,-0.0578 1.0815,-0.13829 0.59512,-0.13513 1.14986,-0.41233 1.73744,-0.57718 0.86374,-0.24234 1.64187,-0.32101 2.45635,-0.70908 0.99901,-0.45664 2.0693,-0.51239 3.04299,-1.00942 0,0 -11.75028,9.20108 -11.75028,9.20108 l 0,0 c -1.03944,0.26901 -2.05683,0.59429 -3.06228,0.97204 -1.77959,0.40744 -3.51848,0.98163 -5.33841,1.19766 -2.44329,0.49968 -4.86758,1.08303 -7.34393,1.40965 -2.55962,0.45044 -5.13817,0.82685 -7.71508,1.14597 -1.88407,0.12544 -3.75267,0.36443 -5.58859,0.82067 -2.63097,0.48746 -5.3272,0.51553 -7.95266,1.06093 -3.0396,0.4958 -6.11023,0.86341 -9.18653,1.01292 -3.96629,-0.0147 -7.93221,-0.0945 -11.89864,-0.0992 -5.55161,-5.3e-4 -11.10337,-0.0273 -16.65482,0.0292 -4.7934,0.0123 -9.5868,0.007 -14.38006,-0.0347 -4.77479,-0.0747 -9.5478,-0.21827 -14.31232,-0.55746 -4.87724,-0.30061 -9.74891,-0.49157 -14.63734,-0.41135 -4.49529,-0.1016 -8.99048,-0.3384 -13.41719,-1.19253 -8.58487,-1.5594 -17.16801,-3.13767 -25.83268,-4.20676 -8.29889,-0.87272 -16.61124,-1.56757 -24.90037,-2.52294 0,0 12.17972,-8.58771 12.17972,-8.58771 z"
       inkscape:connector-curvature="0" />
    <path
       style="fill:#008080;fill-opacity:1"
       id="path4534"
       d="m 210.81941,229.74769 c 4.97036,0.19643 9.94699,0.20638 14.92066,0.22592 6.30021,0.0201 12.60028,-0.0136 18.9003,-0.0571 4.72,-0.0328 9.44024,-0.0425 14.16034,-0.0313 4.66571,-0.0176 9.33135,0.007 13.99703,0.009 4.88601,-0.003 9.77183,0.0225 14.65777,-0.0157 4.13763,-0.0346 8.27533,-0.0172 12.413,-0.009 4.08086,0.0123 8.1616,-0.0181 12.24243,-0.0219 3.63498,0.0154 7.26993,-0.0276 10.90485,-0.009 4.07269,0.01 8.14532,0.0324 12.21803,0.0343 3.77686,-0.0219 7.55379,-0.023 11.33065,-0.0447 2.6633,-0.0308 5.32657,-0.0353 7.98997,-0.0359 2.30225,-9.3e-4 4.6045,-0.0234 6.90672,-0.007 2.44554,-0.003 4.89102,0.0104 7.33655,0.006 0.96715,-0.27977 2.03381,-0.28174 2.99306,-0.58673 0.78646,-0.25006 1.51824,-0.68101 2.31848,-0.92962 0,0 -11.77041,9.1557 -11.77041,9.1557 l 0,0 c -1.76962,0.65561 -3.6039,1.0661 -5.50472,1.05271 -2.45141,-0.004 -4.90276,0.009 -7.35418,0.006 -2.29604,0.0163 -4.5921,-0.005 -6.88818,-0.007 -2.63049,-5.1e-4 -5.26084,-0.005 -7.89123,-0.0359 -3.73583,-0.0218 -7.47173,-0.0227 -11.20757,-0.0447 -4.10414,0.002 -8.20821,0.0246 -12.31234,0.0343 -3.627,0.0186 -7.25402,-0.0238 -10.88108,-0.009 -4.06074,-0.004 -8.12139,-0.0343 -12.18216,-0.0219 -4.12926,0.008 -8.25854,0.0256 -12.38776,-0.009 -4.87149,-0.039 -9.74288,-0.0122 -14.61444,-0.0157 -4.67435,0.002 -9.34866,0.027 -14.02303,0.009 -4.6914,0.0111 -9.38295,0.002 -14.07424,-0.0313 -6.24763,-0.044 -12.4953,-0.0773 -18.74311,-0.0571 -5.18107,0.0201 -10.36449,0.0364 -15.5426,0.22593 0,0 12.08721,-8.78187 12.08721,-8.78187 z"
       inkscape:connector-curvature="0" />
    <path
       style="fill:#008080;fill-opacity:1"
       id="path4536"
       d="m 203.81883,303.71089 c 4.57502,1.35343 9.33668,1.92542 14.07247,2.38461 6.2444,0.52712 12.51323,0.56909 18.77517,0.60587 5.16036,-0.0592 10.32766,0.13974 15.4812,-0.16446 5.11382,-0.16954 10.16294,-0.91276 15.19875,-1.75945 4.22534,-1.13256 8.58074,-1.48719 12.88787,-2.13121 4.25627,-0.71672 8.58405,-0.69034 12.86562,-1.13489 3.77052,-0.26019 7.4828,-0.90954 11.22359,-1.40104 3.77338,-0.49701 7.52924,-1.03916 11.32998,-1.30845 3.98515,-0.17825 7.94153,-0.73671 11.9172,-1.06741 2.58244,-0.54512 5.16952,-0.95972 7.80164,-1.1441 3.28304,-0.25277 6.55481,-0.6581 9.84766,-0.8561 3.17379,-0.007 6.29234,-0.57215 9.4321,-0.95487 2.24348,-0.26772 4.50278,-0.3282 6.75957,-0.35772 2.60816,0.0849 5.17069,0.0168 7.75693,-0.32182 2.42296,-0.3623 4.86365,-0.55254 7.31019,-0.64449 1.40242,-0.0337 0.70448,-0.0204 2.09383,-0.0401 0,0 -11.99828,8.75258 -11.99828,8.75258 l 0,0 c -1.36933,0.0333 -0.68225,0.0124 -2.06122,0.063 -2.39493,0.12429 -4.77985,0.358 -7.15904,0.65953 -2.64196,0.25741 -5.28969,0.25312 -7.9422,0.28296 -2.20333,0.0512 -4.40654,0.15201 -6.59535,0.42436 -3.11102,0.37193 -6.21763,0.75125 -9.35536,0.8041 -3.33589,0.25911 -6.64785,0.71171 -9.98151,0.9847 -2.58154,0.26032 -5.12029,0.79417 -7.70096,1.05927 -3.95286,0.29969 -7.88887,0.78613 -11.84728,1.01551 -3.79683,0.33433 -7.55452,0.92755 -11.33305,1.41567 -3.71289,0.53541 -7.42986,0.98548 -11.1714,1.27827 -4.2871,0.33571 -8.59412,0.48477 -12.84312,1.2061 -4.28759,0.56135 -8.56352,1.15264 -12.78862,2.09794 -5.05844,0.80246 -10.14179,1.40074 -15.26369,1.60416 -5.1531,0.19965 -10.31305,0.0706 -15.4689,0.0507 -6.25011,-0.0903 -12.50426,-0.26606 -18.73535,-0.78596 -4.94273,-0.4766 -9.85023,-1.15044 -14.73663,-2.03785 0,0 12.22819,-8.57939 12.22819,-8.57939 z"
       inkscape:connector-curvature="0" />
    <path
       style="fill:#ffffff;fill-opacity:1"
       d="m 123.85687,396.36947 c 3.47033,-8.80431 5.91864,-20.46273 6.58645,-31.36347 0.35738,-5.83363 1.27804,-14.69772 2.04591,-19.69798 0.76786,-5.00025 1.86092,-13.63706 2.42901,-19.1929 0.56808,-5.55584 3.05999,-19.19289 5.53757,-30.30457 6.45441,-28.94738 7.40674,-35.11891 8.71061,-56.4482 0.72722,-11.89615 2.05786,-23.29879 3.53643,-30.30457 1.30378,-6.17761 5.07406,-23.73267 8.37838,-39.01122 8.69801,-40.21786 8.57494,-39.10727 7.96478,-71.877338 -0.59694,-32.060143 -1.18751,-36.042865 -7.61609,-51.361278 -2.215,-5.278047 -3.95673,-9.641022 -3.87051,-9.6955 0.0862,-0.05448 16.97582,1.633434 37.53242,3.750916 51.33365,5.287746 84.02564,6.938622 137.57826,6.94741 48.92127,0.008 63.85912,-0.800762 83.64515,-4.528857 15.55329,-2.93056 24.80649,-4.555189 25.94441,-4.555189 1.16967,0 1.02542,74.401096 -0.18467,95.245916 -1.61875,27.88445 -5.06333,48.86666 -11.75445,71.60073 -11.26734,38.28243 -15.28022,55.74811 -18.06366,78.62042 -0.37186,3.05571 -2.3216,13.73808 -4.33275,23.73859 -3.63242,18.06237 -3.65688,18.35661 -3.69367,44.44671 -0.0313,22.21097 0.25329,27.48052 1.84431,34.14742 1.03475,4.3359 1.6252,8.13961 1.31212,8.45268 -0.31307,0.31308 -11.38748,-0.23527 -24.60978,-1.21855 -20.97515,-1.55983 -32.28404,-1.70461 -88.69032,-1.13543 -60.04831,0.60593 -66.26746,0.83474 -87.37819,3.21461 -32.79241,3.69678 -56.17572,5.50259 -71.45356,5.5181 l -13.36978,0.0136 1.97162,-5.00202 z m 130.83396,-82.4164 c 6.11142,-0.83381 21.11219,-2.62876 33.33504,-3.98878 12.22284,-1.36003 26.08719,-2.93049 30.80965,-3.48993 13.63194,-1.61488 18.77378,-2.07141 34.00883,-3.01959 l 14.31087,-0.89067 5.89219,-4.38693 c 5.82215,-4.33478 5.85706,-4.39093 2.93764,-4.7236 -4.43616,-0.50552 -29.58047,1.49265 -55.13634,4.38157 -12.49673,1.41266 -27.49429,3.0245 -33.32792,3.58186 -5.83363,0.55736 -14.24315,1.71081 -18.68782,2.56323 -14.84856,2.84772 -49.68541,2.77592 -63.13454,-0.13013 -1.88443,-0.40718 -4.0177,0.52342 -8.40521,3.66664 -3.23391,2.31678 -5.50676,4.58366 -5.05077,5.03753 2.78147,2.76851 45.41042,3.72336 62.44838,1.3988 l 0,0 z m 108.75279,-76.98922 c 5.34361,-3.50525 10.90761,-7.83809 10.92872,-8.51047 0.0118,-0.3779 -1.45278,-0.26426 -3.25476,0.25254 -1.89514,0.54351 -36.61976,0.93964 -82.37077,0.93964 l -79.09445,0 -5.5125,4.16198 c -3.03187,2.28908 -5.51249,4.33464 -5.51249,4.54568 0,0.21104 36.47913,0.38131 81.06474,0.3784 75.40598,-0.005 81.25229,-0.12835 83.75151,-1.76777 l 0,0 z M 350.9157,172.00877 c 23.38585,-3.26386 27.15117,-4.33982 33.88721,-9.68353 3.21746,-2.5524 5.66563,-4.82505 5.44036,-5.05031 -0.22526,-0.22526 -3.08802,0.28854 -6.3617,1.14179 -3.27367,0.85324 -13.8519,2.68259 -23.50719,4.06522 -14.34098,2.0536 -21.36889,2.50444 -38.3858,2.46245 -30.68269,-0.0758 -59.36439,-1.5488 -75.37897,-3.8714 -7.77817,-1.12808 -19.45289,-2.7901 -25.94381,-3.69337 l -11.80167,-1.64232 -6.2696,4.25761 c -7.45413,5.062 -7.08768,5.48482 5.62928,6.49519 5.00026,0.39727 16.13719,1.87319 24.74874,3.27979 19.43621,3.17471 32.53189,3.92904 71.98121,4.14623 26.50485,0.14591 33.25812,-0.13433 45.96194,-1.90735 l 0,0 z m 1.58149,-72.158461 c 11.8324,-1.383814 23.5797,-3.137874 26.10512,-3.897911 4.32902,-1.302848 16.56329,-9.516577 15.60388,-10.475993 -0.24438,-0.244379 -3.15264,0.249513 -6.4628,1.097537 -3.31016,0.848024 -12.32729,2.242008 -20.03805,3.097744 -7.71075,0.855735 -17.42882,2.002511 -21.5957,2.548389 -21.26351,2.785612 -136.30479,-0.757603 -145.6322,-4.485399 -1.10294,-0.440802 -4.04477,0.909123 -8.51185,3.905857 -6.49051,4.354145 -6.7058,4.623572 -4.37546,5.475784 2.72218,0.995509 23.9619,2.890553 46.39257,4.139233 8.05597,0.44846 33.17682,0.88185 55.82413,0.96308 38.00723,0.13634 42.83293,-0.046 62.69036,-2.368321 l 0,0 z"
       id="path3000"
       inkscape:connector-curvature="0" />
  </g>
</svg>
