<?xml version="1.0" encoding="UTF-8" standalone="no"?>
<!-- Created with Inkscape (http://www.inkscape.org/) -->

<svg
   xmlns:dc="http://purl.org/dc/elements/1.1/"
   xmlns:cc="http://creativecommons.org/ns#"
   xmlns:rdf="http://www.w3.org/1999/02/22-rdf-syntax-ns#"
   xmlns:svg="http://www.w3.org/2000/svg"
   xmlns="http://www.w3.org/2000/svg"
   xmlns:sodipodi="http://sodipodi.sourceforge.net/DTD/sodipodi-0.dtd"
   xmlns:inkscape="http://www.inkscape.org/namespaces/inkscape"
   width="744.09448819"
   height="1052.3622047"
   id="svg3875"
   version="1.1"
   inkscape:version="0.48.3.1 r9886"
   sodipodi:docname="exportToSVG.svg"
   inkscape:export-filename="/home/enrico/development/java/cdv/swing/src/main/resources/org/cdv/swing/exportToSVG.png"
   inkscape:export-xdpi="5.2531958"
   inkscape:export-ydpi="5.2531958">
  <defs
     id="defs3877" />
  <sodipodi:namedview
     id="base"
     pagecolor="#ffffff"
     bordercolor="#666666"
     borderopacity="1.0"
     inkscape:pageopacity="0"
     inkscape:pageshadow="2"
     inkscape:zoom="0.98994949"
     inkscape:cx="375"
     inkscape:cy="748.57143"
     inkscape:document-units="px"
     inkscape:current-layer="layer1"
     showgrid="false"
     inkscape:window-width="935"
     inkscape:window-height="805"
     inkscape:window-x="809"
     inkscape:window-y="213"
     inkscape:window-maximized="0" />
  <metadata
     id="metadata3880">
    <rdf:RDF>
      <cc:Work
         rdf:about="">
        <dc:format>image/svg+xml</dc:format>
        <dc:type
           rdf:resource="http://purl.org/dc/dcmitype/StillImage" />
        <dc:title></dc:title>
      </cc:Work>
    </rdf:RDF>
  </metadata>
  <g
     inkscape:label="Layer 1"
     inkscape:groupmode="layer"
     id="layer1">
    <path
       style="fill:#008080;fill-opacity:1"
       id="path4403"
       d="m 145.26989,10.656634 c 1.35736,3.86829 3.15115,7.551832 4.71237,11.33856 2.17662,5.503256 4.85052,10.787917 7.16583,16.229514 2.20168,4.849419 4.31002,9.735416 6.23499,14.701225 2.19147,4.650164 3.3249,9.548699 3.92311,14.62353 0.49219,5.094267 1.17384,10.157401 1.50279,15.266613 0.36188,5.315913 0.36863,10.646964 0.38546,15.972533 -0.0161,6.279401 -0.0514,12.558881 -0.0889,18.838251 0.20989,7.54162 -0.78977,14.99245 -2.06892,22.3998 -1.42504,7.53442 -3.45711,14.93361 -4.88089,22.46794 -1.31306,7.07228 -3.0493,14.0563 -4.36755,21.1272 -1.27985,6.91511 -3.01788,13.72951 -4.69369,20.55512 -2.04057,6.99081 -3.05847,14.16957 -3.60216,21.41182 -0.11681,5.98356 -0.67848,11.9339 -1.16192,17.89438 -0.24255,5.57282 -0.64554,11.12222 -1.17419,16.67473 -0.61927,5.75354 -1.85028,11.40691 -3.11805,17.04421 -1.04382,5.22693 -2.36115,10.39333 -3.46305,15.60726 -1.13696,4.86451 -2.00569,9.78514 -3.19431,14.63749 -1.23723,4.32299 -1.76146,8.79052 -2.5517,13.20447 -0.7149,3.86965 -1.0075,7.78961 -1.14531,11.71614 -0.009,3.50076 -0.62441,6.97125 -1.42009,10.36981 -0.78278,2.92439 -1.15942,5.91968 -1.35767,8.93294 -0.11411,3.24851 -0.10661,6.48232 -0.53085,9.70894 -0.49877,3.35197 -0.77133,6.72821 -0.92071,10.11179 -0.0176,3.25676 -0.7125,6.45981 -1.4719,9.61147 -0.55033,2.89546 -1.31649,5.7218 -2.24221,8.51754 -0.94551,2.73225 -1.90954,5.45084 -3.03006,8.11728 -0.83231,2.61746 -2.18787,5.00503 -3.32401,7.48984 -0.95523,2.14598 -1.99361,4.25165 -3.02111,6.36316 -0.61425,1.3811 -0.26957,0.71112 -1.03338,2.01028 0,0 -19.45969,8.2344 -19.45969,8.2344 l 0,0 c 1.02805,-0.78257 0.58055,-0.31487 1.3287,-1.41619 0.79509,-2.2241 2.02897,-4.2717 3.08915,-6.37611 0.94536,-2.59674 2.5314,-4.87829 3.36383,-7.51338 1.06715,-2.65818 2.22941,-5.27006 3.01465,-8.0324 1.12003,-2.68018 1.89188,-5.49986 2.44493,-8.34679 0.75952,-3.02174 1.50245,-6.09537 1.61207,-9.21748 0.14485,-3.44873 0.41595,-6.88989 0.91101,-10.30791 0.40589,-3.17718 0.52463,-6.32024 0.50066,-9.5266 0.15521,-3.13462 0.44706,-6.2672 1.2575,-9.31101 0.83925,-3.27424 1.55368,-6.6092 1.62847,-10.00042 0.16378,-4.02459 0.39105,-8.05635 1.13046,-12.0239 0.76581,-4.4732 1.33251,-8.99186 2.54329,-13.3747 1.2713,-4.81751 2.09225,-9.72724 3.26906,-14.56707 1.04912,-5.2509 2.49013,-10.41662 3.48696,-15.68007 1.34342,-5.54967 2.56848,-11.12773 3.26145,-16.80233 0.51071,-5.54185 1.00935,-11.06894 1.15955,-16.63567 0.47098,-6.00028 1.27379,-11.96861 1.38127,-17.99395 0.55452,-7.32814 1.38126,-14.63637 3.4596,-21.7156 1.65308,-6.78856 3.40259,-13.5558 4.68749,-20.4269 1.32561,-7.09022 3.125,-14.07974 4.45113,-21.16964 1.40355,-7.54255 3.43288,-14.93857 4.93273,-22.46002 1.25401,-7.28892 2.43209,-14.60662 2.12029,-22.03829 -0.0301,-6.24557 -0.0462,-12.49116 -0.0877,-18.73666 -0.03,-5.28613 -0.0695,-10.574234 -0.33499,-15.854917 -0.34722,-5.07342 -1.0573,-10.101396 -1.48748,-15.164206 -0.54047,-4.898495 -1.55435,-9.661844 -3.70973,-14.136356 -1.92024,-4.952588 -3.87143,-9.888686 -6.04571,-14.737469 -2.28056,-5.451699 -5.02788,-10.695781 -7.29583,-16.15575 -1.60214,-3.703135 -3.34264,-7.333523 -5.10265,-10.964013 0,0 18.42768,-10.492435 18.42768,-10.492435 z"
       inkscape:connector-curvature="0" />
    <path
       style="fill:#008080;fill-opacity:1"
       id="path4405"
       d="m 146.787,19.672463 c 6.25329,2.014521 12.7641,3.022879 19.21561,4.17692 8.81384,1.481097 17.74263,1.999627 26.62921,2.853698 6.00567,0.557205 12.02113,0.745291 18.01039,1.455801 6.31836,0.670084 12.64087,1.329192 18.94336,2.142803 7.9292,0.841992 15.83341,1.891984 23.78063,2.560195 6.24128,0.485874 12.50288,0.563088 18.75966,0.603843 5.35627,0.02381 10.68182,0.754549 16.0295,1.074451 5.08645,0.261749 10.17971,0.29018 15.27144,0.311768 5.12445,-0.02381 10.24869,0.02758 15.3731,0.03712 6.6058,0.02103 13.21156,0.03414 19.81736,0.06263 7.05789,0.0076 14.11583,0.0087 21.17352,-0.05129 5.13513,-0.03741 10.27033,-0.05945 15.4056,-0.06148 5.1357,-0.006 10.27125,0.02806 15.40697,0.03748 5.72713,0.249304 11.41844,-0.4607 17.11462,-0.938796 4.0938,-0.08431 8.09068,-0.731974 12.12699,-1.323622 4.2569,-0.469558 8.46503,-1.257938 12.62991,-2.246591 3.56631,-0.966806 7.11137,-1.883732 10.78481,-2.376453 3.49345,-0.115653 6.8838,-0.956029 10.35172,-1.324093 3.27718,-1.001281 6.74972,-1.102745 10.04128,-1.975034 2.79781,-0.391334 5.38312,-1.394829 8.08867,-2.116252 2.27881,-0.337832 4.48829,-1.00527 6.65031,-1.80875 0,0 -16.74377,12.963532 -16.74377,12.963532 l 0,0 c -2.20115,0.564078 -4.36814,1.232234 -6.59391,1.703909 -2.65825,0.834507 -5.37904,1.348974 -8.10103,1.93827 -3.37198,0.562644 -6.7313,1.175491 -10.09334,1.791512 -3.44328,0.509682 -6.87685,1.052947 -10.34353,1.38308 -3.5883,0.615164 -7.05903,1.666519 -10.61427,2.433437 -4.22418,0.906235 -8.50048,1.553623 -12.77689,2.159575 -3.98992,0.592713 -7.98317,0.9013 -12.01499,1.068465 -5.72079,0.438306 -11.43366,0.983663 -17.18064,0.782228 -5.1701,0.0094 -10.34004,0.04337 -15.51012,0.03746 -5.07881,-0.002 -10.15755,-0.02376 -15.23621,-0.06159 -7.01093,-0.061 -14.02213,-0.05843 -21.03327,-0.05036 -6.6677,0.02969 -13.33539,0.04485 -20.00306,0.07353 -5.1595,0.01553 -10.31913,0.08503 -15.47854,0.02176 -5.09608,-0.04306 -10.19626,-0.104368 -15.28257,-0.448196 -5.30615,-0.352146 -10.59683,-1.015022 -15.92006,-1.018695 -6.23522,-0.08434 -12.47471,-0.245602 -18.6837,-0.86792 -7.92925,-0.815005 -15.83183,-1.869917 -23.76704,-2.631735 -6.40785,-0.691583 -12.82891,-1.256107 -19.23793,-1.931897 -5.87846,-0.685333 -11.79633,-0.891213 -17.66753,-1.661373 -8.85226,-0.96249 -17.74712,-1.564623 -26.5313,-3.085014 -6.82491,-1.091389 -13.6917,-2.101129 -20.37042,-3.917075 0,0 17.57946,-11.77725 17.57946,-11.77725 z"
       inkscape:connector-curvature="0" />
    <path
       style="fill:#008080;fill-opacity:1"
       id="path4409"
       d="m 122.42938,401.86675 c 10.89685,0.43827 21.83334,0.0434 32.71482,-0.60284 16.35463,-0.67591 32.57422,-2.79746 48.81479,-4.70396 8.22771,-0.69109 16.38976,-1.98482 24.6292,-2.52268 9.48507,-0.41359 18.98296,-0.35109 28.4748,-0.38609 11.07412,-0.15283 22.13606,-0.73163 33.2114,-0.96213 14.25655,-0.24331 28.51571,-0.20784 42.77358,-0.30984 11.30156,-0.3451 22.5863,0.24564 33.8739,0.6988 8.35661,0.84436 16.7629,1.07982 25.12215,1.85163 6.6567,0.63954 13.32368,0.99787 19.9683,1.74871 4.69048,0.70029 9.52179,1.10055 14.12123,2.29832 2.66418,0.47758 5.13452,1.57438 7.74206,2.21731 3.83442,1.28418 7.82346,2.02866 11.69747,3.16879 1.73473,0.54974 3.51111,0.92603 5.29471,1.27105 0,0 -17.19563,11.93682 -17.19563,11.93682 l 0,0 c -1.77222,-0.43111 -3.5352,-0.89314 -5.27679,-1.43769 -3.94303,-1.07088 -7.92534,-1.99034 -11.87475,-3.03714 -2.52671,-0.77796 -5.03416,-1.59925 -7.60508,-2.23413 -4.49572,-1.03724 -9.08316,-1.72663 -13.65852,-2.29621 -6.57024,-0.74557 -13.1716,-1.12916 -19.74595,-1.84263 -8.2821,-0.68149 -16.57657,-1.21602 -24.85587,-1.93864 -11.08975,-0.56108 -22.17702,-1.22933 -33.28852,-1.00643 -14.29785,-0.0384 -28.59704,0.0566 -42.89013,0.45421 -11.16841,0.36841 -22.32743,1.13491 -33.50429,1.1201 -9.5922,0.045 -19.19545,0.10208 -28.76803,0.77933 -8.00114,0.69063 -15.97999,1.61846 -23.9971,2.12888 -16.09162,1.51236 -32.15586,3.30907 -48.29837,4.22418 -11.51227,0.80666 -23.04177,1.35263 -34.57327,1.80172 0,0 17.09389,-12.41944 17.09389,-12.41944 z"
       inkscape:connector-curvature="0" />
    <path
       style="fill:#008080;fill-opacity:1"
       id="path4411"
       d="m 462.29251,28.409033 c -0.20492,4.335476 -0.21282,8.677808 -0.23952,13.017225 -0.009,5.843979 -0.0385,11.687846 -0.0544,17.531771 -0.0209,6.883196 -0.0461,13.766408 -0.0794,20.6496 0.0165,7.233502 -0.0331,14.467243 0.0535,21.700381 0.32109,5.57132 -0.27577,11.10362 -0.76188,16.64315 -0.40831,6.1904 -0.50858,12.38595 -1.02312,18.56983 -0.36296,7.00001 -1.22967,13.94638 -2.23638,20.87812 -1.14863,7.2482 -2.60632,14.44049 -3.99278,21.64526 -1.43858,7.7771 -3.80069,15.33601 -6.17636,22.86603 -2.57617,7.49418 -4.4618,15.19266 -6.61191,22.81192 -1.85381,6.37874 -3.40856,12.83395 -4.99601,19.28191 -1.58489,6.53817 -2.51664,13.20526 -3.57784,19.84078 -1.07895,7.09412 -1.97978,14.21307 -2.94343,21.32324 -1.40166,8.50837 -3.36386,16.91228 -5.11763,25.35232 -1.64836,7.80287 -2.20214,15.76052 -2.46972,23.71184 -0.19985,6.90491 -0.16337,13.81359 -0.12113,20.72037 0.25643,5.7613 0.73005,11.51792 2.00809,17.14905 1.00155,3.86397 1.91494,7.74755 2.84312,11.63019 0.58115,2.92079 1.32321,5.80469 2.39338,8.58325 0.73655,2.09921 1.73953,4.09759 2.76746,6.06805 0.88957,1.92708 1.86526,3.81228 2.85841,5.68987 0.78102,1.57968 1.48845,3.21428 2.35466,4.75025 0,0 -18.3083,10.53317 -18.3083,10.53317 l 0,0 c -0.85985,-1.55814 -1.59734,-3.19206 -2.37612,-4.79048 -0.99642,-1.88139 -1.97334,-3.77274 -2.86289,-5.70462 -1.06199,-2.04743 -2.09438,-4.13129 -2.83256,-6.31855 -1.06904,-2.8873 -1.86396,-5.87335 -2.40936,-8.9048 -0.84041,-3.92543 -1.81228,-7.81957 -2.65165,-11.74577 -1.25037,-5.80272 -1.73576,-11.7187 -2.02611,-17.64106 0.019,-6.94682 -0.005,-13.89494 0.17664,-20.83995 0.34598,-8.08394 0.88475,-16.18017 2.52672,-24.12273 1.785,-8.35838 3.58847,-16.71793 5.03351,-25.14247 0.93323,-7.10707 1.72966,-14.23087 2.8148,-21.31735 1.05785,-6.67296 1.97854,-13.37421 3.44068,-19.97579 1.66513,-6.47518 3.11663,-13.00396 5.07214,-19.40172 2.29266,-7.63103 4.1525,-15.38777 6.75609,-22.92717 2.32891,-7.44381 4.62042,-14.91614 6.13091,-22.5781 1.3229,-7.19144 2.85409,-14.34267 4.0294,-21.56175 0.95811,-6.88528 1.88564,-13.77052 2.21022,-20.72318 0.4614,-6.16187 0.60252,-12.32299 0.88863,-18.49522 0.35312,-5.52404 1.15132,-11.01929 0.95915,-16.56865 0.0859,-7.25133 0.0377,-14.503239 0.0535,-21.75493 -0.0333,-6.856227 -0.0585,-13.712474 -0.0794,-20.568705 -0.0159,-5.825442 -0.0457,-11.650827 -0.0544,-17.476325 -0.0264,-4.258018 -0.0313,-8.519272 -0.23952,-12.773142 0,0 18.87073,-9.615115 18.87073,-9.615115 z"
       inkscape:connector-curvature="0" />
    <path
       style="fill:#aa0000;fill-opacity:1"
       id="path4413"
       d="m 181.16749,120.17494 c -7.62982,-0.27582 -15.26992,-0.22916 -22.904,-0.20264 -6.58374,-0.0568 -13.48516,0.189 -19.66942,2.6456 -4.29748,1.70048 -9.01498,3.09562 -12.81632,5.77134 -29.481822,16.06426 121.90704,-69.480779 -6.04056,3.30782 -11.37678,6.4722 22.67258,-13.0861 34.05204,-19.55358 0.49062,-0.27884 -1.59908,1.07742 -3.82628,2.52814 -3.52682,2.34484 -6.16074,5.43756 -8.47678,8.93776 -2.43486,3.761 -4.06976,7.60568 -4.8939,12.005 -0.7478,5.3988 -0.72962,10.86488 -0.75936,16.30398 -0.32882,5.1337 0.1818,9.93764 2.4505,14.56752 2.82636,3.96456 6.31266,7.3063 9.98872,10.46424 4.26808,3.93676 8.87576,7.448 13.46136,11.00166 4.5638,3.18978 9.59838,5.4867 14.59744,7.8836 3.714,2.69918 7.95602,4.40074 11.5083,7.32642 3.9797,2.62206 7.31978,6.07422 10.39106,9.6902 3.44158,4.19108 6.1614,8.45122 7.71436,13.672 1.35144,5.64434 1.5231,11.40056 0.74888,17.12782 -1.20722,5.97592 -3.54912,11.6512 -6.44236,16.99444 -3.1645,6.6077 -8.18286,11.10114 -14.18978,15.04908 -28.76734,19.98228 -38.7457,22.99946 -66.42976,30.67072 -10.56278,3.3241 -21.239062,6.41996 -32.102442,8.6 -8.9772,1.43288 -18.02428,1.75612 -26.99432,3.1898 -1.2423,0.1854 -2.48458,0.37074 -3.72688,0.55612 0,0 33.43452,-25.03236 33.43452,-25.03236 l 0,0 c 1.2212,-0.1706 2.44242,-0.3411 3.66364,-0.51166 8.853402,-1.15318 17.827462,-1.32724 26.579562,-3.22746 10.69086,-2.44728 21.25352,-5.41114 31.73824,-8.62472 5.68374,-1.56832 11.3779,-3.08416 16.95206,-5.01824 14.18428,-4.92154 36.72596,-18.9966 -21.92336,14.49758 5.97926,-3.7175 11.23174,-6.41638 14.61072,-12.95932 2.8106,-5.04592 5.60528,-10.03952 7.09812,-15.69204 0.93362,-5.18188 1.15476,-10.28036 -0.016,-15.47896 -1.20662,-4.67234 -3.69468,-8.35132 -6.77496,-12.03782 -3.03096,-3.33942 -6.26628,-6.45522 -10.06838,-8.91742 -3.51408,-2.46042 -7.36234,-4.37602 -10.94554,-6.73114 -5.1115,-2.66094 -10.36636,-5.08146 -14.9657,-8.61282 -4.6634,-3.57894 -9.1521,-7.37642 -13.67008,-11.13542 -4.07124,-3.50406 -7.7261,-7.45986 -10.76702,-11.9 -2.735382,-5.16734 -3.811262,-10.4769 -3.370642,-16.34278 -3.6e-4,-5.59944 -0.0372,-11.20904 0.4053,-16.7952 0.50426,-4.66076 1.14144,-9.45574 4.204922,-13.21328 1.56642,-3.93776 4.3353,-8.14068 7.8185,-10.57882 2.15136,-2.09584 1.1334,-1.3564 3.72764,-2.8755 12.67308,-7.42082 25.63166,-14.37236 38.0335,-22.2381 11.03292,-6.997519 -45.3136,26.03172 -33.92374,19.63154 67.94028,-38.176979 23.83448,-14.2459 40.0189,-23.01948 4.37468,-1.76696 8.58608,-3.911919 13.23574,-4.938539 6.63768,-1.24814 13.30804,-1.85232 20.07056,-1.47998 7.82018,0.0274 15.64544,0.0646 23.4618,-0.20264 0,0 -34.26852,24.897539 -34.26852,24.897539 z"
       inkscape:connector-curvature="0" />
    <path
       style="fill:#aa0000;fill-opacity:1"
       id="path4415"
       d="m 256.39207,118.28452 c 5.54362,9.19104 10.45594,18.7374 15.44436,28.23656 6.88294,13.20388 13.0325,26.77636 19.45408,40.2085 5.55982,11.41444 10.01344,23.29626 15.48752,34.75246 4.81976,8.64648 8.74982,17.7422 13.13418,26.60534 3.53696,7.91622 7.06714,15.82726 9.86928,24.03858 1.36866,5.94546 3.40084,11.71288 4.76354,17.6584 4.08374,22.4368 -6.53192,15.2764 -36.49208,32.60396 -4.38918,-4.10476 -4.39418,-10.15046 -4.81008,-15.75378 -0.43628,-7.90774 -0.40634,-15.83532 -0.37636,-23.75284 -0.34258,-8.12206 0.1432,-16.16464 1.16918,-24.21532 1.36924,-8.70382 3.37918,-17.28216 5.09374,-25.91818 1.19624,-8.60388 3.39444,-16.99848 5.42898,-25.42592 1.86502,-7.63474 4.34832,-15.09148 6.61232,-22.61286 2.21438,-6.88854 5.74514,-13.16564 9.37312,-19.37958 3.74834,-6.2049 7.06976,-12.64704 10.65416,-18.94308 3.343,-5.98538 6.92534,-11.84046 10.8349,-17.47304 2.06626,-2.88732 1.02218,-1.51524 3.11886,-4.12636 0,0 38.7119,-16.62088 38.7119,-16.62088 l 0,0 c -2.04344,2.7551 -0.93298,1.43422 -3.33924,3.95598 -3.82994,5.70276 -8.0562,11.16412 -11.17006,17.33444 -3.81426,6.1409 -6.84522,12.71464 -10.54196,18.9277 -3.72606,5.94734 -7.27738,11.98886 -9.8683,18.533 -2.51788,7.37206 -4.52724,14.91416 -6.88052,22.34178 -1.81576,8.45054 -4.61158,16.69404 -5.52284,25.33184 -1.66112,8.54898 -3.66636,17.01082 -5.12646,25.60032 -0.93234,7.92708 -1.9643,15.77598 -1.469,23.79204 0.0482,7.79088 0.01,15.58734 0.44552,23.36938 0.21902,2.85354 0.39726,5.71074 1.06028,8.50556 0.1418,0.59776 0.43776,2.21842 0.74438,1.68604 0.1306,-0.22664 -0.0392,-0.52164 -0.0586,-0.78244 -11.93818,7.10396 -23.94026,14.10164 -35.81456,21.31188 -0.23144,0.1406 0.61766,0.1336 0.81028,-0.0568 0.34148,-0.33732 0.45282,-0.855 0.581,-1.31754 0.65282,-2.3556 0.067,-4.65528 -0.26786,-7.01028 -1.1779,-5.87812 -3.12822,-11.5657 -4.2052,-17.4686 -2.52144,-8.10952 -6.05286,-15.8276 -9.43964,-23.60418 -4.35484,-8.91036 -8.10324,-18.1136 -12.82246,-26.84778 -5.4219,-11.49792 -9.72412,-23.45566 -15.17848,-34.93486 -6.2737,-13.42044 -12.26106,-26.99604 -19.32818,-40.02582 -5.11252,-9.17796 -10.0202,-18.60724 -16.50634,-26.90624 0,0 36.42672,-21.61742 36.42672,-21.61742 z"
       inkscape:connector-curvature="0" />
    <path
       style="fill:#aa0000;fill-opacity:1"
       id="path4417"
       d="m 495.16553,135.42894 c -1.07898,0.62318 -2.15642,1.249 -3.23692,1.86952 -108.71388,62.43364 -6.9909,4.01434 -8.63002,4.89726 -13.5436,7.29526 -26.72856,15.23794 -40.13836,22.77634 -6.1701,3.18798 -3.1473,1.54382 -9.07206,4.92574 -9.26052,5.27726 0.34622,-0.1106 -8.78394,4.75634 -1.35646,0.72306 -5.36324,3.00642 -4.03176,2.23834 10.59094,-6.10954 42.33614,-24.48452 31.8106,-18.26298 -12.95994,7.66048 -26.11696,14.9832 -39.11426,22.5801 -10.74528,6.2806 21.57204,-12.42074 32.35806,-18.6311 -6.71102,4.06624 -12.66752,9.18334 -19.18014,13.5469 -5.91992,3.71424 -11.2596,8.21312 -16.0851,13.25026 -3.80552,4.06858 -5.77214,9.35214 -8.3903,14.17802 -2.5676,4.2763 -2.98152,9.2628 -4.27668,13.9683 -1.53974,4.75602 -2.01926,9.71844 -2.31748,14.67876 -0.0442,4.46362 1.67142,8.46266 3.1471,12.5646 1.97248,4.01588 4.028,7.93342 6.8396,11.4236 3.19222,4.57808 7.00844,8.65708 10.64208,12.8893 4.30046,5.46076 9.56552,9.88636 14.84332,14.34344 4.01378,3.87914 8.3096,7.81552 13.37084,10.2724 4.66268,1.65588 9.6804,1.64388 14.56826,1.7405 -1.55546,1.86418 9.30406,-3.681 6.72886,-2.21562 -60.69824,34.53984 -42.16128,24.74602 -30.26286,16.7787 3.39256,-2.62496 6.23138,-5.83844 9.33134,-8.77656 3.1081,-3.2858 6.56794,-6.2052 9.52202,-9.64386 3.0056,-3.49804 4.67288,-7.35384 5.88392,-11.74204 1.82444,-4.45402 2.63774,-9.12872 3.0924,-13.89022 0.5373,-4.73272 0.1974,-9.44774 -1.40226,-13.94474 -1.64504,-4.18392 -3.77724,-8.20732 -6.67652,-11.65534 -3.01406,-3.85314 -5.95814,-6.63704 -10.71482,-7.96514 -4.68822,-0.77236 -9.5889,-1.71302 -14.01764,0.39518 11.9734,-6.70676 23.9468,-13.4135 35.92018,-20.12024 0.49176,-0.51864 -1.74384,-2.36884 -1.10188,-3.35578 0.9572,-1.47156 5.84316,-1.15024 7.15378,-1.2738 7.11418,-0.5481 14.27168,-1.57578 21.15712,-3.4879 7.1036,-1.80228 14.36534,-2.71816 21.66388,-3.20144 2.9811,-0.69478 5.98266,-1.27942 8.99458,-1.82048 0,0 -33.50928,25.28472 -33.50928,25.28472 l 0,0 c -3.05078,0.56826 -6.0973,1.20856 -9.19904,1.43598 -7.14464,0.6514 -14.22242,1.7965 -21.16506,3.63876 -7.13902,1.42596 -14.30914,2.63238 -21.5824,3.11242 -3.61778,0.38856 -8.3558,1.85976 -10.80084,-1.8414 -0.6129,-0.92776 -2.2438,-2.44582 -1.31938,-3.06378 11.89646,-7.95278 24.93872,-14.04102 37.40808,-21.06152 5.16032,-0.34826 10.41144,0.1818 15.33498,1.8007 4.99712,2.19708 8.59066,5.6569 11.99268,9.8799 3.00844,3.9198 5.51262,8.242 7.3703,12.82318 1.8804,4.98544 2.60456,10.28418 2.13126,15.6013 -0.2874,5.0133 -0.6606,10.0929 -2.51896,14.8146 -1.8272,4.28284 -1.71742,9.36726 -5.43506,12.75902 -2.20762,4.07002 -5.65308,7.2577 -9.22832,10.15118 -2.66734,3.42796 -6.06826,6.3128 -9.20516,9.29222 -1.6333,1.76592 -1.582,1.97966 -3.68746,3.18714 -13.6985,7.85602 -28.52552,22.77256 -45.96842,22.70124 -5.41456,-0.27796 -10.91358,-0.6855 -15.77574,-3.33114 -4.96258,-3.09826 -9.36612,-7.0149 -13.50774,-11.13086 -5.45844,-4.57764 -10.7109,-9.34916 -15.32428,-14.80256 -3.73972,-4.21348 -7.54018,-8.39438 -10.84036,-12.96614 -3.09778,-3.85054 -5.46246,-8.16698 -7.63206,-12.59952 -1.62876,-4.62146 -3.56598,-9.08946 -3.78848,-14.08214 0.183,-5.20748 0.41114,-10.46196 1.78368,-15.51904 1.5008,-4.91634 2.04216,-10.00102 3.9796,-14.78938 2.65236,-5.08594 5.1331,-10.27294 8.08796,-15.19064 4.69714,-5.42576 9.9497,-10.34872 15.9627,-14.31234 6.56978,-4.32188 12.791,-8.98572 19.06662,-13.71658 12.995,-7.52944 25.99638,-15.04788 38.98502,-22.58832 10.69008,-6.20604 -42.80304,24.7504 -32.08938,18.58512 17.33002,-9.97272 34.4281,-20.20032 52.0083,-29.67494 5.12302,-2.75154 11.08436,-5.96732 9.09368,-4.78092 -10.17942,6.06676 -41.03832,23.7181 -30.703,17.92094 134.98868,-75.716059 -21.44038,10.47322 11.03876,-6.40708 0,0 39.44186,-15.21648 39.44186,-15.21648 z"
       inkscape:connector-curvature="0" />
    <path
       style="fill:#aa0000;fill-opacity:1"
       id="path4423"
       d="m 25.437224,54.738553 c 5.934596,0.219951 11.876906,0.192332 17.814966,0.189206 5.429302,0.0018 10.857677,-0.09535 16.286951,-0.09286 4.45246,0.01324 8.904886,-0.0026 13.357255,-0.03228 3.216187,-0.02414 6.432442,-0.03553 9.648708,-0.04127 3.473995,0.01874 6.947627,0.0406 10.421768,0.02995 3.178352,-0.01381 6.356714,-0.02383 9.535088,-0.02906 2.99677,-0.01574 5.99339,0.0062 8.99009,0.01621 3.16936,0.0016 6.33871,-0.0088 9.50807,-0.01418 2.89351,-0.0045 5.78702,-0.0052 8.68054,-0.0057 2.85456,-3.06e-4 5.70913,-1.88e-4 8.56369,-1.41e-4 0,0 -16.99887,12.350407 -16.99887,12.350407 l 0,0 c -2.85444,4.8e-5 -5.70887,1.65e-4 -8.56331,-1.41e-4 -2.88825,-4.97e-4 -5.77651,-0.0012 -8.66476,-0.0057 -3.15634,-0.0053 -6.312688,-0.01576 -9.469041,-0.01418 -3.01157,0.0099 -6.023067,0.0319 -9.03471,0.01621 -3.151713,-0.0052 -6.303411,-0.0152 -9.455098,-0.02906 -3.501618,-0.01083 -7.002737,0.01161 -10.504215,0.02995 -3.178402,-0.0057 -6.356792,-0.01695 -9.535113,-0.04127 -4.422747,-0.03 -8.845552,-0.04544 -13.268393,-0.03228 -5.344082,0.0025 -10.687227,-0.09466 -16.03134,-0.09286 -6.111798,-0.0032 -12.227126,-0.02389 -18.3358077,0.189207 0,0 17.0535317,-12.390116 17.0535317,-12.390116 z"
       inkscape:connector-curvature="0" />
    <path
       style="fill:#aa0000;fill-opacity:1"
       id="path4425"
       d="m 94.013556,29.990693 c 4.2119,2.994377 8.531484,5.77728 13.018064,8.339313 3.47291,1.988016 6.97453,4.062585 10.69737,5.556777 2.4049,1.385644 4.86761,2.623172 7.43568,3.680563 2.39889,1.164755 4.70246,2.58048 7.19216,3.542086 1.97346,1.316159 4.31585,1.85536 6.23611,3.241066 2.1631,2.35057 1.20716,4.074689 -0.77037,6.048932 -6.47702,3.765181 -12.94684,7.54278 -19.43106,11.295545 -1.18439,0.685466 -4.79354,2.641767 -3.61048,1.954007 33.96581,-19.745787 5.84859,-3.466857 -5.82738,3.303067 30.71862,-18.232363 14.76441,-8.729608 8.15997,-3.800896 -3.43464,2.400684 -7.09252,4.458423 -10.62358,6.715391 -2.91547,1.800025 -5.74799,3.727455 -8.509823,5.753793 -1.819936,1.636385 -3.722987,3.202816 -5.395558,4.99286 -0.633908,0.86927 -1.292431,1.713912 -1.909288,2.595478 0,0 -19.444675,8.256515 -19.444675,8.256515 l 0,0 c 0.780445,-0.77243 1.242584,-1.66689 1.992674,-2.467722 1.29077,-2.267472 3.473555,-3.653159 5.255502,-5.509102 2.576781,-2.397349 5.723796,-4.086924 8.596768,-6.101609 3.564615,-2.133685 6.980854,-4.514441 10.647234,-6.484802 8.363346,-6.773483 18.319936,-11.468945 27.404616,-17.027129 0.62607,-0.347463 2.49677,-1.403049 1.87821,-1.042388 -5.26561,3.070207 -21.1357,12.153397 -15.81973,9.171237 6.6357,-3.722502 13.18039,-7.604992 19.77923,-11.392442 0.64987,-0.372998 1.31243,-0.723448 1.96666,-1.088753 0.57842,-0.32298 2.30258,-1.311476 1.73126,-0.976087 -5.45975,3.205115 -10.93119,6.390268 -16.39678,9.585402 2.09675,-0.983734 0.36496,-0.0348 1.91408,-1.214389 0.53928,-0.410643 1.36319,-0.443118 0.63549,-1.175872 -1.92763,-1.120904 -4.09944,-1.779124 -6.00823,-2.949868 -2.38628,-1.143706 -4.69634,-2.443914 -7.07954,-3.596172 -2.55672,-1.117947 -5.07427,-2.298814 -7.49524,-3.691288 -3.602865,-1.780698 -7.052586,-3.875498 -10.490196,-5.951475 -4.515268,-2.659383 -8.830698,-5.650369 -13.476014,-8.079484 0,0 17.746866,-11.482554 17.746866,-11.482554 z"
       inkscape:connector-curvature="0" />
    <path
       style="fill:#ffffff;fill-opacity:1"
       d="m 123.85687,396.36947 c 3.47033,-8.80431 5.91864,-20.46273 6.58645,-31.36347 0.35738,-5.83363 1.27897,-14.69772 2.04799,-19.69798 0.76901,-5.00025 1.88815,-13.86434 2.48697,-19.69797 0.59882,-5.83363 1.8687,-13.73658 2.82196,-17.5621 l 1.7332,-6.9555 7.07107,-2.72762 c 10.73168,-4.13968 18.94789,-8.57363 32.89536,-17.7523 13.95166,-9.18143 17.70803,-12.84036 22.0353,-21.46374 4.78913,-9.54379 6.49518,-16.89461 5.81808,-25.06833 -1.3949,-16.83887 -11.48671,-28.45589 -35.99004,-41.42933 -4.72794,-2.50324 -9.64573,-5.41216 -10.92841,-6.46429 l -2.33215,-1.91295 4.54821,-21.50834 c 5.75347,-27.20799 6.68208,-32.46891 6.68208,-37.85631 l 0,-4.36016 6.16941,0 6.16942,0 16.81156,-12.19273 c 9.24635,-6.706 16.92583,-12.501749 17.0655,-12.879443 0.34296,-0.92743 -35.42002,-0.323134 -41.26804,0.697317 l -4.64861,0.811157 -0.65676,-13.724502 c -0.79903,-16.69772 -2.30189,-23.958123 -7.5455,-36.452935 -2.215,-5.278047 -3.95673,-9.641022 -3.87051,-9.6955 0.0862,-0.05448 16.97582,1.633434 37.53242,3.750916 51.33365,5.287746 84.02564,6.938622 137.57826,6.94741 48.92127,0.008 63.85912,-0.800762 83.64515,-4.528857 15.55329,-2.93056 24.80649,-4.555189 25.94441,-4.555189 2.26345,0 0.23625,111.932016 -2.13135,117.682776 -0.47075,1.1434 -8.01149,6.18451 -17.37318,11.61427 -18.27963,10.60213 -36.89583,23.65933 -45.14352,31.66317 -11.32338,10.98858 -18.6861,30.03151 -18.80859,48.64644 -0.0619,9.40689 0.16329,10.58676 3.27479,17.15796 5.55021,11.72157 16.53853,25.17103 32.15253,39.35399 5.12516,4.65542 10.01311,8.85315 10.86215,9.3283 1.38454,0.77482 1.38344,1.85163 -0.0107,10.44331 -2.17154,13.38284 -1.50133,51.79491 1.08887,62.40781 0.98952,4.05434 1.53989,7.63076 1.22304,7.9476 -0.31683,0.31684 -11.39432,-0.22843 -24.61662,-1.21171 -20.97515,-1.55983 -32.28404,-1.70461 -88.69032,-1.13543 -60.04831,0.60593 -66.26746,0.83474 -87.37819,3.21461 -32.79241,3.69678 -56.17572,5.50259 -71.45356,5.5181 l -13.36975,0.0136 1.97162,-5.00202 z M 308.8567,317.6572 c 5.76614,-2.70731 13.56866,-6.32767 17.33893,-8.04523 5.76715,-2.62725 7.10591,-3.72325 8.43581,-6.90615 1.82724,-4.3732 1.35791,-9.97392 -1.76287,-21.03741 -2.25954,-8.01025 -2.74821,-28.87573 -0.93969,-40.12256 5.06771,-31.5149 14.08238,-67.1221 20.14739,-79.58052 5.7819,-11.87683 22.07392,-39.86005 27.15954,-46.64929 2.94085,-3.92598 5.21087,-7.27426 5.0445,-7.44063 -0.16636,-0.16636 -9.16375,3.48318 -19.99419,8.1101 l -19.69171,8.41258 -4.67145,6.91433 c -5.36132,7.9354 -19.14591,31.8437 -24.37104,42.26967 -3.42594,6.83591 -8.19331,20.60894 -10.92972,31.57607 -0.72898,2.92166 -1.65058,4.96722 -2.048,4.54569 -0.39741,-0.42154 -3.99702,-8.02994 -7.99913,-16.90759 -10.34991,-22.95862 -34.71629,-71.26915 -37.85371,-75.0515 -0.20486,-0.24696 -35.66528,20.61048 -36.84506,21.67187 -0.25814,0.23223 0.0785,1.19594 0.74818,2.14156 9.63442,13.60511 26.49111,46.56506 41.45049,81.04828 4.45126,10.26071 11.14392,25.0198 14.87255,32.79798 3.72865,7.77817 8.7012,18.9151 11.05012,24.74873 3.98025,9.88505 4.30862,11.44082 4.82706,22.86935 0.38655,8.52123 1.08433,13.37554 2.28697,15.9099 0.95188,2.00594 2.07504,3.64716 2.49591,3.64716 0.42088,0 5.48297,-2.21507 11.24912,-4.92239 z"
       id="path3016"
       inkscape:connector-curvature="0" />
    <path
       style="fill:#ffffff;fill-opacity:1"
       d="m 145.22284,274.34481 c 1.03844,-4.86136 2.53922,-17.63465 3.33508,-28.38508 0.79585,-10.75042 1.65531,-19.75453 1.9099,-20.00912 1.11,-1.11001 11.33506,8.76247 14.63661,14.13191 3.389,5.51166 3.62083,6.42296 3.59768,14.14214 -0.0219,7.31194 -0.4348,9.13097 -3.62818,15.98504 l -3.60343,7.73419 -8.58923,2.61987 c -4.72408,1.44094 -8.80462,2.61988 -9.06786,2.61988 -0.26325,0 0.37099,-3.97748 1.40943,-8.83883 z"
       id="path3018"
       inkscape:connector-curvature="0" />
    <path
       style="fill:#ffffff;fill-opacity:1"
       d="m 409.24701,259.22651 c -5.95375,-7.51963 -11.71045,-19.0939 -12.35912,-24.84892 -1.36633,-12.12203 7.32123,-36.73155 16.2277,-45.96872 4.10594,-4.2584 24.76163,-19.94704 25.31624,-19.22849 0.63972,0.82882 -4.62229,24.44333 -8.06192,36.17979 -7.81186,26.65507 -13.45428,47.91956 -14.11198,53.18358 -0.37614,3.01053 -1.06668,5.71027 -1.53453,5.99941 -0.46785,0.28915 -2.93223,-2.10334 -5.47639,-5.31665 z"
       id="path3020"
       inkscape:connector-curvature="0" />
  </g>
</svg>
