<?xml version="1.0" encoding="UTF-8" standalone="no"?>
<!-- Created with Inkscape (http://www.inkscape.org/) -->

<svg
   xmlns:dc="http://purl.org/dc/elements/1.1/"
   xmlns:cc="http://creativecommons.org/ns#"
   xmlns:rdf="http://www.w3.org/1999/02/22-rdf-syntax-ns#"
   xmlns:svg="http://www.w3.org/2000/svg"
   xmlns="http://www.w3.org/2000/svg"
   xmlns:sodipodi="http://sodipodi.sourceforge.net/DTD/sodipodi-0.dtd"
   xmlns:inkscape="http://www.inkscape.org/namespaces/inkscape"
   width="744.09448819"
   height="1052.3622047"
   id="svg3875"
   version="1.1"
   inkscape:version="0.48.3.1 r9886"
   sodipodi:docname="exportToPNG.svg"
   inkscape:export-filename="/home/enrico/development/java/cdv/swing/src/main/resources/org/cdv/swing/exportToPNG.png"
   inkscape:export-xdpi="5.2531958"
   inkscape:export-ydpi="5.2531958">
  <defs
     id="defs3877" />
  <sodipodi:namedview
     id="base"
     pagecolor="#ffffff"
     bordercolor="#666666"
     borderopacity="1.0"
     inkscape:pageopacity="0"
     inkscape:pageshadow="2"
     inkscape:zoom="1.4"
     inkscape:cx="207.31468"
     inkscape:cy="748.57143"
     inkscape:document-units="px"
     inkscape:current-layer="layer1"
     showgrid="false"
     inkscape:window-width="1104"
     inkscape:window-height="859"
     inkscape:window-x="697"
     inkscape:window-y="159"
     inkscape:window-maximized="0" />
  <metadata
     id="metadata3880">
    <rdf:RDF>
      <cc:Work
         rdf:about="">
        <dc:format>image/svg+xml</dc:format>
        <dc:type
           rdf:resource="http://purl.org/dc/dcmitype/StillImage" />
        <dc:title></dc:title>
      </cc:Work>
    </rdf:RDF>
  </metadata>
  <g
     inkscape:label="Layer 1"
     inkscape:groupmode="layer"
     id="layer1">
    <path
       style="fill:#008080;fill-opacity:1"
       id="path4403"
       d="m 145.26989,10.656634 c 1.35736,3.86829 3.15115,7.551832 4.71237,11.33856 2.17662,5.503256 4.85052,10.787917 7.16583,16.229514 2.20168,4.849419 4.31002,9.735416 6.23499,14.701225 2.19147,4.650164 3.3249,9.548699 3.92311,14.62353 0.49219,5.094267 1.17384,10.157401 1.50279,15.266613 0.36188,5.315913 0.36863,10.646964 0.38546,15.972533 -0.0161,6.279401 -0.0514,12.558881 -0.0889,18.838251 0.20989,7.54162 -0.78977,14.99245 -2.06892,22.3998 -1.42504,7.53442 -3.45711,14.93361 -4.88089,22.46794 -1.31306,7.07228 -3.0493,14.0563 -4.36755,21.1272 -1.27985,6.91511 -3.01788,13.72951 -4.69369,20.55512 -2.04057,6.99081 -3.05847,14.16957 -3.60216,21.41182 -0.11681,5.98356 -0.67848,11.9339 -1.16192,17.89438 -0.24255,5.57282 -0.64554,11.12222 -1.17419,16.67473 -0.61927,5.75354 -1.85028,11.40691 -3.11805,17.04421 -1.04382,5.22693 -2.36115,10.39333 -3.46305,15.60726 -1.13696,4.86451 -2.00569,9.78514 -3.19431,14.63749 -1.23723,4.32299 -1.76146,8.79052 -2.5517,13.20447 -0.7149,3.86965 -1.0075,7.78961 -1.14531,11.71614 -0.009,3.50076 -0.62441,6.97125 -1.42009,10.36981 -0.78278,2.92439 -1.15942,5.91968 -1.35767,8.93294 -0.11411,3.24851 -0.10661,6.48232 -0.53085,9.70894 -0.49877,3.35197 -0.77133,6.72821 -0.92071,10.11179 -0.0176,3.25676 -0.7125,6.45981 -1.4719,9.61147 -0.55033,2.89546 -1.31649,5.7218 -2.24221,8.51754 -0.94551,2.73225 -1.90954,5.45084 -3.03006,8.11728 -0.83231,2.61746 -2.18787,5.00503 -3.32401,7.48984 -0.95523,2.14598 -1.99361,4.25165 -3.02111,6.36316 -0.61425,1.3811 -0.26957,0.71112 -1.03338,2.01028 0,0 -19.45969,8.2344 -19.45969,8.2344 l 0,0 c 1.02805,-0.78257 0.58055,-0.31487 1.3287,-1.41619 0.79509,-2.2241 2.02897,-4.2717 3.08915,-6.37611 0.94536,-2.59674 2.5314,-4.87829 3.36383,-7.51338 1.06715,-2.65818 2.22941,-5.27006 3.01465,-8.0324 1.12003,-2.68018 1.89188,-5.49986 2.44493,-8.34679 0.75952,-3.02174 1.50245,-6.09537 1.61207,-9.21748 0.14485,-3.44873 0.41595,-6.88989 0.91101,-10.30791 0.40589,-3.17718 0.52463,-6.32024 0.50066,-9.5266 0.15521,-3.13462 0.44706,-6.2672 1.2575,-9.31101 0.83925,-3.27424 1.55368,-6.6092 1.62847,-10.00042 0.16378,-4.02459 0.39105,-8.05635 1.13046,-12.0239 0.76581,-4.4732 1.33251,-8.99186 2.54329,-13.3747 1.2713,-4.81751 2.09225,-9.72724 3.26906,-14.56707 1.04912,-5.2509 2.49013,-10.41662 3.48696,-15.68007 1.34342,-5.54967 2.56848,-11.12773 3.26145,-16.80233 0.51071,-5.54185 1.00935,-11.06894 1.15955,-16.63567 0.47098,-6.00028 1.27379,-11.96861 1.38127,-17.99395 0.55452,-7.32814 1.38126,-14.63637 3.4596,-21.7156 1.65308,-6.78856 3.40259,-13.5558 4.68749,-20.4269 1.32561,-7.09022 3.125,-14.07974 4.45113,-21.16964 1.40355,-7.54255 3.43288,-14.93857 4.93273,-22.46002 1.25401,-7.28892 2.43209,-14.60662 2.12029,-22.03829 -0.0301,-6.24557 -0.0462,-12.49116 -0.0877,-18.73666 -0.03,-5.28613 -0.0695,-10.574234 -0.33499,-15.854917 -0.34722,-5.07342 -1.0573,-10.101396 -1.48748,-15.164206 -0.54047,-4.898495 -1.55435,-9.661844 -3.70973,-14.136356 -1.92024,-4.952588 -3.87143,-9.888686 -6.04571,-14.737469 -2.28056,-5.451699 -5.02788,-10.695781 -7.29583,-16.15575 -1.60214,-3.703135 -3.34264,-7.333523 -5.10265,-10.964013 0,0 18.42768,-10.492435 18.42768,-10.492435 z"
       inkscape:connector-curvature="0" />
    <path
       style="fill:#008080;fill-opacity:1"
       id="path4405"
       d="m 146.787,19.672463 c 6.25329,2.014521 12.7641,3.022879 19.21561,4.17692 8.81384,1.481097 17.74263,1.999627 26.62921,2.853698 6.00567,0.557205 12.02113,0.745291 18.01039,1.455801 6.31836,0.670084 12.64087,1.329192 18.94336,2.142803 7.9292,0.841992 15.83341,1.891984 23.78063,2.560195 6.24128,0.485874 12.50288,0.563088 18.75966,0.603843 5.35627,0.02381 10.68182,0.754549 16.0295,1.074451 5.08645,0.261749 10.17971,0.29018 15.27144,0.311768 5.12445,-0.02381 10.24869,0.02758 15.3731,0.03712 6.6058,0.02103 13.21156,0.03414 19.81736,0.06263 7.05789,0.0076 14.11583,0.0087 21.17352,-0.05129 5.13513,-0.03741 10.27033,-0.05945 15.4056,-0.06148 5.1357,-0.006 10.27125,0.02806 15.40697,0.03748 5.72713,0.249304 11.41844,-0.4607 17.11462,-0.938796 4.0938,-0.08431 8.09068,-0.731974 12.12699,-1.323622 4.2569,-0.469558 8.46503,-1.257938 12.62991,-2.246591 3.56631,-0.966806 7.11137,-1.883732 10.78481,-2.376453 3.49345,-0.115653 6.8838,-0.956029 10.35172,-1.324093 3.27718,-1.001281 6.74972,-1.102745 10.04128,-1.975034 2.79781,-0.391334 5.38312,-1.394829 8.08867,-2.116252 2.27881,-0.337832 4.48829,-1.00527 6.65031,-1.80875 0,0 -16.74377,12.963532 -16.74377,12.963532 l 0,0 c -2.20115,0.564078 -4.36814,1.232234 -6.59391,1.703909 -2.65825,0.834507 -5.37904,1.348974 -8.10103,1.93827 -3.37198,0.562644 -6.7313,1.175491 -10.09334,1.791512 -3.44328,0.509682 -6.87685,1.052947 -10.34353,1.38308 -3.5883,0.615164 -7.05903,1.666519 -10.61427,2.433437 -4.22418,0.906235 -8.50048,1.553623 -12.77689,2.159575 -3.98992,0.592713 -7.98317,0.9013 -12.01499,1.068465 -5.72079,0.438306 -11.43366,0.983663 -17.18064,0.782228 -5.1701,0.0094 -10.34004,0.04337 -15.51012,0.03746 -5.07881,-0.002 -10.15755,-0.02376 -15.23621,-0.06159 -7.01093,-0.061 -14.02213,-0.05843 -21.03327,-0.05036 -6.6677,0.02969 -13.33539,0.04485 -20.00306,0.07353 -5.1595,0.01553 -10.31913,0.08503 -15.47854,0.02176 -5.09608,-0.04306 -10.19626,-0.104368 -15.28257,-0.448196 -5.30615,-0.352146 -10.59683,-1.015022 -15.92006,-1.018695 -6.23522,-0.08434 -12.47471,-0.245602 -18.6837,-0.86792 -7.92925,-0.815005 -15.83183,-1.869917 -23.76704,-2.631735 -6.40785,-0.691583 -12.82891,-1.256107 -19.23793,-1.931897 -5.87846,-0.685333 -11.79633,-0.891213 -17.66753,-1.661373 -8.85226,-0.96249 -17.74712,-1.564623 -26.5313,-3.085014 -6.82491,-1.091389 -13.6917,-2.101129 -20.37042,-3.917075 0,0 17.57946,-11.77725 17.57946,-11.77725 z"
       inkscape:connector-curvature="0" />
    <path
       style="fill:#008080;fill-opacity:1"
       id="path4409"
       d="m 122.42938,401.86675 c 10.89685,0.43827 21.83334,0.0434 32.71482,-0.60284 16.35463,-0.67591 32.57422,-2.79746 48.81479,-4.70396 8.22771,-0.69109 16.38976,-1.98482 24.6292,-2.52268 9.48507,-0.41359 18.98296,-0.35109 28.4748,-0.38609 11.07412,-0.15283 22.13606,-0.73163 33.2114,-0.96213 14.25655,-0.24331 28.51571,-0.20784 42.77358,-0.30984 11.30156,-0.3451 22.5863,0.24564 33.8739,0.6988 8.35661,0.84436 16.7629,1.07982 25.12215,1.85163 6.6567,0.63954 13.32368,0.99787 19.9683,1.74871 4.69048,0.70029 9.52179,1.10055 14.12123,2.29832 2.66418,0.47758 5.13452,1.57438 7.74206,2.21731 3.83442,1.28418 7.82346,2.02866 11.69747,3.16879 1.73473,0.54974 3.51111,0.92603 5.29471,1.27105 0,0 -17.19563,11.93682 -17.19563,11.93682 l 0,0 c -1.77222,-0.43111 -3.5352,-0.89314 -5.27679,-1.43769 -3.94303,-1.07088 -7.92534,-1.99034 -11.87475,-3.03714 -2.52671,-0.77796 -5.03416,-1.59925 -7.60508,-2.23413 -4.49572,-1.03724 -9.08316,-1.72663 -13.65852,-2.29621 -6.57024,-0.74557 -13.1716,-1.12916 -19.74595,-1.84263 -8.2821,-0.68149 -16.57657,-1.21602 -24.85587,-1.93864 -11.08975,-0.56108 -22.17702,-1.22933 -33.28852,-1.00643 -14.29785,-0.0384 -28.59704,0.0566 -42.89013,0.45421 -11.16841,0.36841 -22.32743,1.13491 -33.50429,1.1201 -9.5922,0.045 -19.19545,0.10208 -28.76803,0.77933 -8.00114,0.69063 -15.97999,1.61846 -23.9971,2.12888 -16.09162,1.51236 -32.15586,3.30907 -48.29837,4.22418 -11.51227,0.80666 -23.04177,1.35263 -34.57327,1.80172 0,0 17.09389,-12.41944 17.09389,-12.41944 z"
       inkscape:connector-curvature="0" />
    <path
       style="fill:#008080;fill-opacity:1"
       id="path4411"
       d="m 462.29251,28.409033 c -0.20492,4.335476 -0.21282,8.677808 -0.23952,13.017225 -0.009,5.843979 -0.0385,11.687846 -0.0544,17.531771 -0.0209,6.883196 -0.0461,13.766408 -0.0794,20.6496 0.0165,7.233502 -0.0331,14.467243 0.0535,21.700381 0.32109,5.57132 -0.27577,11.10362 -0.76188,16.64315 -0.40831,6.1904 -0.50858,12.38595 -1.02312,18.56983 -0.36296,7.00001 -1.22967,13.94638 -2.23638,20.87812 -1.14863,7.2482 -2.60632,14.44049 -3.99278,21.64526 -1.43858,7.7771 -3.80069,15.33601 -6.17636,22.86603 -2.57617,7.49418 -4.4618,15.19266 -6.61191,22.81192 -1.85381,6.37874 -3.40856,12.83395 -4.99601,19.28191 -1.58489,6.53817 -2.51664,13.20526 -3.57784,19.84078 -1.07895,7.09412 -1.97978,14.21307 -2.94343,21.32324 -1.40166,8.50837 -3.36386,16.91228 -5.11763,25.35232 -1.64836,7.80287 -2.20214,15.76052 -2.46972,23.71184 -0.19985,6.90491 -0.16337,13.81359 -0.12113,20.72037 0.25643,5.7613 0.73005,11.51792 2.00809,17.14905 1.00155,3.86397 1.91494,7.74755 2.84312,11.63019 0.58115,2.92079 1.32321,5.80469 2.39338,8.58325 0.73655,2.09921 1.73953,4.09759 2.76746,6.06805 0.88957,1.92708 1.86526,3.81228 2.85841,5.68987 0.78102,1.57968 1.48845,3.21428 2.35466,4.75025 0,0 -18.3083,10.53317 -18.3083,10.53317 l 0,0 c -0.85985,-1.55814 -1.59734,-3.19206 -2.37612,-4.79048 -0.99642,-1.88139 -1.97334,-3.77274 -2.86289,-5.70462 -1.06199,-2.04743 -2.09438,-4.13129 -2.83256,-6.31855 -1.06904,-2.8873 -1.86396,-5.87335 -2.40936,-8.9048 -0.84041,-3.92543 -1.81228,-7.81957 -2.65165,-11.74577 -1.25037,-5.80272 -1.73576,-11.7187 -2.02611,-17.64106 0.019,-6.94682 -0.005,-13.89494 0.17664,-20.83995 0.34598,-8.08394 0.88475,-16.18017 2.52672,-24.12273 1.785,-8.35838 3.58847,-16.71793 5.03351,-25.14247 0.93323,-7.10707 1.72966,-14.23087 2.8148,-21.31735 1.05785,-6.67296 1.97854,-13.37421 3.44068,-19.97579 1.66513,-6.47518 3.11663,-13.00396 5.07214,-19.40172 2.29266,-7.63103 4.1525,-15.38777 6.75609,-22.92717 2.32891,-7.44381 4.62042,-14.91614 6.13091,-22.5781 1.3229,-7.19144 2.85409,-14.34267 4.0294,-21.56175 0.95811,-6.88528 1.88564,-13.77052 2.21022,-20.72318 0.4614,-6.16187 0.60252,-12.32299 0.88863,-18.49522 0.35312,-5.52404 1.15132,-11.01929 0.95915,-16.56865 0.0859,-7.25133 0.0377,-14.503239 0.0535,-21.75493 -0.0333,-6.856227 -0.0585,-13.712474 -0.0794,-20.568705 -0.0159,-5.825442 -0.0457,-11.650827 -0.0544,-17.476325 -0.0264,-4.258018 -0.0313,-8.519272 -0.23952,-12.773142 0,0 18.87073,-9.615115 18.87073,-9.615115 z"
       inkscape:connector-curvature="0" />
    <path
       style="fill:#aa0000;fill-opacity:1"
       id="path4423"
       d="m 25.437224,54.738553 c 5.934596,0.219951 11.876906,0.192332 17.814966,0.189206 5.429302,0.0018 10.857677,-0.09535 16.286951,-0.09286 4.45246,0.01324 8.904886,-0.0026 13.357255,-0.03228 3.216187,-0.02414 6.432442,-0.03553 9.648708,-0.04127 3.473995,0.01874 6.947627,0.0406 10.421768,0.02995 3.178352,-0.01381 6.356714,-0.02383 9.535088,-0.02906 2.99677,-0.01574 5.99339,0.0062 8.99009,0.01621 3.16936,0.0016 6.33871,-0.0088 9.50807,-0.01418 2.89351,-0.0045 5.78702,-0.0052 8.68054,-0.0057 2.85456,-3.06e-4 5.70913,-1.88e-4 8.56369,-1.41e-4 0,0 -16.99887,12.350407 -16.99887,12.350407 l 0,0 c -2.85444,4.8e-5 -5.70887,1.65e-4 -8.56331,-1.41e-4 -2.88825,-4.97e-4 -5.77651,-0.0012 -8.66476,-0.0057 -3.15634,-0.0053 -6.312688,-0.01576 -9.469041,-0.01418 -3.01157,0.0099 -6.023067,0.0319 -9.03471,0.01621 -3.151713,-0.0052 -6.303411,-0.0152 -9.455098,-0.02906 -3.501618,-0.01083 -7.002737,0.01161 -10.504215,0.02995 -3.178402,-0.0057 -6.356792,-0.01695 -9.535113,-0.04127 -4.422747,-0.03 -8.845552,-0.04544 -13.268393,-0.03228 -5.344082,0.0025 -10.687227,-0.09466 -16.03134,-0.09286 -6.111798,-0.0032 -12.227126,-0.02389 -18.3358077,0.189207 0,0 17.0535317,-12.390116 17.0535317,-12.390116 z"
       inkscape:connector-curvature="0" />
    <path
       style="fill:#aa0000;fill-opacity:1"
       id="path4425"
       d="m 94.013556,29.990693 c 4.2119,2.994377 8.531484,5.77728 13.018064,8.339313 3.47291,1.988016 6.97453,4.062585 10.69737,5.556777 2.4049,1.385644 4.86761,2.623172 7.43568,3.680563 2.39889,1.164755 4.70246,2.58048 7.19216,3.542086 1.97346,1.316159 4.31585,1.85536 6.23611,3.241066 2.1631,2.35057 1.20716,4.074689 -0.77037,6.048932 -6.47702,3.765181 -12.94684,7.54278 -19.43106,11.295545 -1.18439,0.685466 -4.79354,2.641767 -3.61048,1.954007 33.96581,-19.745787 5.84859,-3.466857 -5.82738,3.303067 30.71862,-18.232363 14.76441,-8.729608 8.15997,-3.800896 -3.43464,2.400684 -7.09252,4.458423 -10.62358,6.715391 -2.91547,1.800025 -5.74799,3.727455 -8.509823,5.753793 -1.819936,1.636385 -3.722987,3.202816 -5.395558,4.99286 -0.633908,0.86927 -1.292431,1.713912 -1.909288,2.595478 0,0 -19.444675,8.256515 -19.444675,8.256515 l 0,0 c 0.780445,-0.77243 1.242584,-1.66689 1.992674,-2.467722 1.29077,-2.267472 3.473555,-3.653159 5.255502,-5.509102 2.576781,-2.397349 5.723796,-4.086924 8.596768,-6.101609 3.564615,-2.133685 6.980854,-4.514441 10.647234,-6.484802 8.363346,-6.773483 18.319936,-11.468945 27.404616,-17.027129 0.62607,-0.347463 2.49677,-1.403049 1.87821,-1.042388 -5.26561,3.070207 -21.1357,12.153397 -15.81973,9.171237 6.6357,-3.722502 13.18039,-7.604992 19.77923,-11.392442 0.64987,-0.372998 1.31243,-0.723448 1.96666,-1.088753 0.57842,-0.32298 2.30258,-1.311476 1.73126,-0.976087 -5.45975,3.205115 -10.93119,6.390268 -16.39678,9.585402 2.09675,-0.983734 0.36496,-0.0348 1.91408,-1.214389 0.53928,-0.410643 1.36319,-0.443118 0.63549,-1.175872 -1.92763,-1.120904 -4.09944,-1.779124 -6.00823,-2.949868 -2.38628,-1.143706 -4.69634,-2.443914 -7.07954,-3.596172 -2.55672,-1.117947 -5.07427,-2.298814 -7.49524,-3.691288 -3.602865,-1.780698 -7.052586,-3.875498 -10.490196,-5.951475 -4.515268,-2.659383 -8.830698,-5.650369 -13.476014,-8.079484 0,0 17.746866,-11.482554 17.746866,-11.482554 z"
       inkscape:connector-curvature="0" />
    <path
       style="fill:#aa0000;fill-opacity:1"
       id="path4406"
       d="m 158.13384,107.75322 c -1.24754,5.11706 -2.77675,10.18752 -3.78492,15.34036 -1.26363,7.32074 -1.41789,14.72284 -1.5522,22.09946 0.0996,10.06318 -0.74124,20.106 -1.97811,30.11558 -1.63839,10.74336 -2.50088,21.53704 -2.94067,32.34848 -0.28715,10.48446 -1.5243,20.93066 -2.18706,31.40284 -0.64189,9.44286 -0.23865,18.90724 -0.8683,28.34682 -0.68923,8.51042 -2.38891,16.95134 -4.34667,25.32938 -1.34711,6.72214 -2.54215,13.46274 -3.75142,20.20246 -0.60341,5.40442 -1.72181,10.74072 -3.1673,16.04044 -0.96458,4.24682 -2.89148,8.27048 -4.42228,12.39042 -0.16928,0.58128 -0.3388,1.16256 -0.50816,1.74386 0,0 -33.879072,13.02874 -33.879072,13.02874 l 0,0 c 0.135969,-0.63722 0.272065,-1.27444 0.40811,-1.91166 1.259646,-4.224 3.71774,-8.10746 4.662105,-12.40316 1.725347,-5.1934 2.745497,-10.53344 3.504337,-15.86582 1.23358,-6.80148 2.48788,-13.59872 3.85348,-20.38194 1.9735,-8.29958 4.03027,-16.62126 4.72775,-25.06418 0.7524,-9.45284 0.40107,-18.94118 1.08841,-28.4004 0.58918,-10.4643 1.84542,-20.89754 2.20505,-31.36592 0.48477,-10.87018 1.19781,-21.73996 2.89624,-32.5407 1.24213,-9.88082 2.04353,-19.81458 1.77365,-29.74784 0.0651,-7.446 -0.0177,-14.91562 1.01402,-22.3277 0.88713,-5.13594 2.36715,-10.15486 3.1984,-15.28738 0,0 34.05461,-13.09214 34.05461,-13.09214 z"
       inkscape:connector-curvature="0" />
    <path
       style="fill:#aa0000;fill-opacity:1"
       id="path4408"
       d="m 144.7419,107.31834 c 9.76597,0.14834 19.43925,-0.0484 29.08664,1.39152 9.68574,0.98019 18.55321,4.10637 27.45977,7.22651 6.95822,2.7762 12.89737,6.9917 18.09668,11.75064 5.21421,4.62833 9.09529,9.95758 12.05831,15.81979 2.42908,5.9733 3.11663,12.27718 3.37447,18.55122 0.60836,6.43036 -1.09455,12.44764 -4.04005,18.30536 -3.94419,6.89943 -9.78251,12.74346 -15.89273,18.30505 -16.21521,14.89737 -37.35071,22.81388 -58.06147,33.02186 -8.90104,4.37362 -18.64196,7.14037 -28.15804,10.32405 -9.18429,2.4263 -18.30628,5.04122 -27.597,7.16454 -4.907168,1.46676 -2.483328,0.77367 -7.269359,2.08477 0,0 32.858229,-21.67366 32.858229,-21.67366 l 0,0 c 4.72049,-1.28102 2.30158,-0.64525 7.2586,-1.90223 9.15512,-2.23517 18.27706,-4.60611 27.23729,-7.35833 9.50178,-3.04858 18.93053,-6.29088 27.72243,-10.66332 -60.79535,30.29093 -23.55721,13.29825 -12.13375,2.53114 6.0847,-5.27802 11.93916,-10.70691 16.24971,-17.18388 3.16934,-5.25966 5.30977,-10.77114 4.82025,-16.7728 -0.2267,-5.86321 -0.46873,-11.80222 -2.64853,-17.42546 -2.64261,-5.53266 -6.44859,-10.40474 -11.31784,-14.72296 -4.87727,-4.37172 -10.51353,-8.10716 -17.0215,-10.56849 -8.57718,-3.09014 -17.31892,-5.74058 -26.6482,-6.65367 -9.7609,-1.04542 -19.56762,-0.81215 -29.38681,-0.55679 0,0 33.9529,-20.99486 33.9529,-20.99486 z"
       inkscape:connector-curvature="0" />
    <path
       style="fill:#aa0000;fill-opacity:1"
       id="path4410"
       d="m 270.53785,122.67565 c 2.30401,8.7357 3.45256,17.55486 4.30023,26.39754 0.25181,10.14264 1.69399,20.20848 3.56194,30.26606 2.07648,10.50544 4.20871,20.98886 5.32331,31.5629 0.85937,10.15182 1.1428,20.31906 1.29762,30.48474 0.0791,8.41788 0.11302,16.83624 0.03,25.25414 -0.015,7.02014 0.10912,14.03954 0.22813,21.05908 0.0782,4.43532 0.10372,8.87094 0.11631,13.30654 0.009,4.0189 0.006,8.0378 0.006,12.0567 0.46405,3.77528 -0.55263,7.4201 -1.60699,11.0999 -0.62188,2.15944 -1.8211,4.22078 -2.90907,6.28986 0,0 -40.82675,12.4195 -40.82675,12.4195 l 0,0 c 1.60876,-1.7585 2.08253,-3.76518 3.47998,-5.60868 0.86161,-3.56652 2.63031,-7.00282 2.04104,-10.66354 -7.7e-4,-4.02 -0.003,-8.03998 0.006,-12.05996 0.012,-4.4624 0.0378,-8.92484 0.11811,-13.38698 0.12321,-7.0762 0.25721,-14.15224 0.2638,-21.22908 -0.0567,-8.42172 0.0387,-16.84338 0.0585,-25.26514 0.012,-10.14048 0.027,-20.28948 -0.87561,-30.41618 -1.09965,-10.51816 -3.16202,-20.9418 -5.30017,-31.38362 -1.99682,-10.11056 -3.56818,-20.23142 -3.65499,-30.44526 -0.79276,-8.62882 -1.68875,-17.35876 -5.30906,-25.70332 0,0 39.65443,-14.0352 39.65443,-14.0352 z"
       inkscape:connector-curvature="0" />
    <path
       style="fill:#aa0000;fill-opacity:1"
       id="path4412"
       d="m 266.53388,127.03622 c -0.67873,8.26047 -0.13601,16.51633 0.72297,24.74616 1.88855,11.55048 6.94967,22.26031 12.96084,32.53917 6.01154,9.78677 12.5422,19.29962 19.37761,28.6458 5.56921,7.84802 11.54087,15.46269 17.05228,23.34273 4.90331,6.71039 9.40489,13.64036 14.26401,20.37557 3.90135,5.5763 9.05526,10.2899 13.7435,15.31902 3.03059,2.85268 6.2434,5.68224 10.51043,6.92234 1.58001,0.38716 3.4483,0.37574 4.99521,-0.2122 0.4779,-0.18163 1.73454,-1.01504 1.28062,-0.79012 -26.98331,13.3691 -37.56336,19.51568 -26.61959,13.20454 5.11635,-3.54635 6.4763,-9.07989 7.56546,-14.45926 1.36413,-9.33074 1.31775,-18.76986 1.34803,-28.16239 -0.0185,-9.00235 -0.0849,-18.00456 -0.11933,-27.00687 -0.0948,-8.39756 -0.16824,-16.77495 0.57047,-25.15041 0.58687,-7.94012 1.41828,-15.8441 2.47865,-23.7439 0.88515,-5.89404 0.87858,-11.84415 1.87167,-17.72356 1.13029,-4.961 1.33065,-10.0212 1.93814,-15.03823 0.69858,-4.00983 1.34091,-8.02255 1.76628,-12.06278 0,0 30.87138,-13.6592 30.87138,-13.6592 l 0,0 c -0.38436,4.0981 -0.97032,8.17389 -1.8107,12.21976 -0.85964,5.00965 -0.60701,10.14039 -1.82624,15.11875 -1.23182,5.86845 -1.4676,11.79898 -2.20472,17.73054 -1.1826,7.87995 -2.21294,15.74504 -2.68593,23.68932 -0.8116,8.3047 -0.86136,16.60042 -0.72419,24.93563 -6e-5,9.03289 8.8e-4,18.06578 -0.0408,27.09861 -0.0551,9.47225 0.0339,18.9635 -0.78746,28.4139 -0.83855,5.77215 -1.80108,11.68723 -6.10425,16.33133 -10.405,9.31119 -25.63428,20.91801 -40.56362,16.33629 -4.42444,-1.94758 -7.98628,-5.00151 -11.15422,-8.33555 -4.69183,-5.16823 -9.85482,-10.02547 -13.72072,-15.75243 -4.80031,-6.77857 -9.36834,-13.68311 -14.19938,-20.44474 -5.48897,-7.86448 -11.24122,-15.58194 -16.72707,-23.4487 -6.83288,-9.45611 -13.48309,-19.01721 -19.44206,-28.93558 -6.20922,-10.59618 -11.37861,-21.63255 -13.61286,-33.4888 -1.10413,-8.15687 -1.81187,-16.32644 -1.95711,-24.54266 0,0 30.98279,-14.01208 30.98279,-14.01208 z"
       inkscape:connector-curvature="0" />
    <path
       style="fill:#aa0000;fill-opacity:1"
       id="path4416"
       d="m 495.47061,120.44428 c -6.47404,5.14927 -13.13504,10.05732 -19.3966,15.43276 -7.14259,6.13903 -12.91104,13.35654 -18.40874,20.7301 -5.11479,6.9731 -10.08716,14.0461 -14.65146,21.33368 -3.72106,5.79368 -6.58593,11.99457 -9.5307,18.13739 -2.4954,5.33019 -4.83209,10.71886 -7.37305,16.03203 -2.9101,5.64768 -5.11295,11.53397 -7.06124,17.50567 -2.35028,6.27205 -3.18222,12.83191 -3.64479,19.41015 -0.72762,6.64394 1.08589,13.01402 3.56919,19.18676 2.78083,5.8724 6.80169,11.13201 10.58229,16.48103 3.15451,4.80006 7.07643,8.97984 11.62171,12.69627 4.39481,4.07815 10.04801,6.1551 15.75335,8.17928 7.11636,2.14407 14.62669,2.60803 22.05783,2.92045 5.73741,-0.61465 11.48624,-2.44982 16.3767,-5.27108 9.12119,-4.62023 40.85454,-20.70757 -26.86791,14.14245 -0.65001,0.33449 1.2215,-0.78576 1.79474,-1.22224 1.79009,-1.36301 3.09574,-3.01685 4.43515,-4.73836 2.76425,-3.25672 4.46013,-6.93294 6.06157,-10.74248 1.68395,-4.04197 2.14632,-8.33938 2.4306,-12.61981 0.0286,-4.77801 -2.62408,-8.89572 -5.15544,-12.89802 -3.61277,-5.58215 -8.57179,-10.2426 -13.02221,-15.24186 -4.20919,-4.69181 -8.68023,-9.15086 -13.03364,-13.72536 -2.43169,-2.7545 -4.82241,-5.61159 -7.67138,-8.02029 -0.98392,-0.82903 -4.48479,-5.23972 -2.21295,-6.48055 31.08909,-16.98006 21.65366,-16.12222 38.16003,-16.66323 11.1402,-0.29443 22.28562,-0.29835 33.42922,-0.36315 6.1188,-0.0395 3.15056,-0.0199 8.90477,-0.0572 0,0 -28.88093,19.19465 -28.88093,19.19465 l 0,0 c -5.60731,-0.0567 -2.71318,-0.0304 -8.68245,-0.0784 -11.1483,-0.0437 -22.32492,-0.10526 -33.44216,0.75154 -1.38131,0.19546 -5.30569,1.2974 -4.14386,0.58633 9.18969,-5.62427 19.34017,-9.85604 28.51435,-15.5015 2.43554,-1.49876 -2.28065,-1.14002 -2.25734,-0.64958 0.028,0.58979 1.27909,1.65386 1.51692,1.89392 2.77618,2.62293 5.3273,5.44784 7.6893,8.38955 4.1516,4.72017 8.57273,9.20087 12.78886,13.87687 4.6667,5.0599 9.60705,9.94641 13.42131,15.6079 3.0292,4.48252 5.86259,9.15859 6.32584,14.52678 -0.1959,4.5393 -0.49754,9.1129 -1.94558,13.48902 -1.4569,3.97167 -2.75228,8.12597 -5.76664,11.37914 -8.15195,13.81884 -25.19418,18.93396 -40.49242,25.82812 -5.51478,2.18775 -11.26071,4.1168 -17.37904,3.7117 -7.69775,-0.5339 -15.45152,-1.26728 -22.75013,-3.72376 -6.07348,-2.18268 -11.83858,-4.90076 -16.52727,-9.15458 -4.69014,-3.97189 -8.76126,-8.44849 -12.08157,-13.46136 -3.82972,-5.58637 -7.89538,-11.07347 -10.80592,-17.13636 -2.76662,-6.48368 -4.91101,-13.36667 -4.30801,-20.3971 0.42094,-6.76869 0.91305,-13.6154 3.25457,-20.09985 2.05827,-5.98487 3.76521,-12.07792 6.74569,-17.76999 2.48954,-5.34971 5.15758,-10.62525 7.42883,-16.06028 2.94122,-6.28884 5.99076,-12.58664 9.64007,-18.55362 4.46874,-7.41673 9.50623,-14.55129 14.62792,-21.6012 5.43294,-7.57103 11.14621,-14.98427 18.16562,-21.41662 5.9965,-5.27647 12.09593,-10.39321 18.66775,-15.066 0,0 33.52928,-12.70958 33.52928,-12.70958 z"
       inkscape:connector-curvature="0" />
    <path
       style="fill:#ffffff;fill-opacity:1"
       d="m 151.07385,217.06916 c 0.45876,-2.91682 2.42768,-12.34912 4.37538,-20.96067 3.59282,-15.88528 12.67153,-58.27486 12.67153,-59.16489 0,-0.91082 6.54106,2.89341 11.7934,6.85897 5.95692,4.49751 12.58857,12.63306 15.09383,18.51675 1.17997,2.7712 1.72985,7.07475 1.80046,14.0912 0.0949,9.42764 -0.10051,10.46748 -2.9288,15.58722 -3.09994,5.61148 -11.56293,14.82388 -19.72911,21.47615 -3.2528,2.64976 -7.15749,4.47618 -13.49752,6.31345 -4.90639,1.42181 -9.25653,2.58512 -9.66699,2.58512 -0.41046,0 -0.37094,-2.38649 0.0878,-5.3033 z"
       id="path3038"
       inkscape:connector-curvature="0" />
    <path
       style="fill:#ffffff;fill-opacity:1"
       d="m 123.70964,396.54074 c 3.17581,-7.40886 5.85893,-19.40312 6.53459,-29.21139 1.57519,-22.86625 6.75345,-55.8641 13.63276,-86.87312 1.92018,-8.65539 3.58617,-20.05218 4.29408,-29.37532 l 1.15668,-15.23318 18.74042,-8.88741 c 29.13341,-13.81616 38.05093,-19.42922 50.61945,-31.86198 10.67487,-10.55958 13.38658,-14.57832 15.67713,-23.23351 l 1.203,-4.54569 0.51569,3.53554 c 1.21614,8.33764 5.03498,31.41036 6.35337,38.38579 2.88109,15.24366 3.75621,41.13421 2.83394,83.84267 -0.86071,39.85706 -0.94324,41.02492 -3.20335,45.32565 -1.27592,2.42796 -2.18506,4.53819 -2.0203,4.6894 0.16476,0.15121 9.61754,-2.55363 21.00616,-6.01076 l 20.7066,-6.28567 2.01498,-4.96971 c 1.90286,-4.69315 1.99728,-6.92322 1.69668,-40.07252 -0.17507,-19.30654 -0.1216,-35.1028 0.11883,-35.1028 0.24044,0 4.42936,5.74929 9.30872,12.77622 9.8511,14.18684 20.88587,26.45638 27.72026,30.82207 7.90127,5.0472 19.54826,3.58519 31.29357,-3.9282 11.76028,-7.52297 16.44492,-12.6787 18.49919,-20.35957 0.53738,-2.00923 1.33264,-23.19961 1.76723,-47.08972 0.69987,-38.47181 1.09791,-45.74574 3.48251,-63.63961 1.48077,-11.11168 3.11162,-23.61231 3.62409,-27.77919 0.51248,-4.16688 1.23511,-9.96483 1.60584,-12.88433 l 0.67406,-5.30819 -10.49535,4.6642 c -5.77244,2.5653 -12.86503,5.71704 -15.7613,7.00385 -5.81423,2.58325 -5.67912,2.30645 -7.37647,15.11076 -5.309,40.04966 -6.24829,52.66042 -6.77153,90.91373 l -0.52504,38.3858 -4.50862,-5.05076 c -2.47976,-2.77792 -7.7256,-9.59645 -11.65745,-15.15229 -3.93184,-5.55584 -11.89757,-16.60064 -17.70163,-24.544 -5.80404,-7.94335 -14.75785,-20.69153 -19.89736,-28.32926 -10.65926,-15.84057 -10.59815,-15.64191 -13.25464,-43.09123 -1.39064,-14.36938 -3.81704,-29.49314 -4.90655,-30.58266 -0.21555,-0.21555 -9.31514,2.71353 -20.2213,6.50907 l -19.82939,6.90099 0.6306,3.53554 c 0.59191,3.31869 0.38431,3.1562 -3.38502,-2.64954 -4.18591,-6.44738 -14.68449,-15.71305 -21.90329,-19.33104 -6.40508,-3.21017 -22.70699,-8.10696 -29.57607,-8.88411 -5.49777,-0.62201 -6.28676,-0.97914 -6.30363,-2.85336 -0.0764,-8.487748 -2.13271,-37.486975 -2.9681,-41.858003 -0.56452,-2.953746 -2.86979,-9.942602 -5.12282,-15.53079 -2.25303,-5.588188 -3.85891,-10.397849 -3.56862,-10.688137 0.52807,-0.528068 14.6309,0.730551 59.156,5.279425 35.84097,3.661667 59.31174,4.609498 113.64216,4.589262 53.08303,-0.01977 66.88261,-0.745473 85.86296,-4.515428 6.66701,-1.324228 14.39468,-2.705929 17.1726,-3.070447 2.77792,-0.364519 5.84626,-0.882467 6.81853,-1.150997 1.66352,-0.459442 1.76484,1.97316 1.71819,41.248629 -0.0273,22.955276 -0.43135,47.999696 -0.89794,55.654276 l -0.84836,13.9174 -4.51265,4.8244 c -5.78805,6.1879 -17.20137,21.60638 -23.7588,32.09624 -8.66727,13.86497 -20.71814,39.2515 -26.08338,54.94763 -2.64763,7.74571 -2.93536,9.87187 -2.93909,21.71828 -0.004,12.63718 0.11567,13.38484 3.17537,19.84275 3.49931,7.38579 11.36002,19.38802 16.70328,25.50365 l 3.4338,3.93016 -1.49466,7.68659 c -1.06257,5.46442 -1.5108,14.98747 -1.55047,32.94042 -0.0553,24.98354 0.35764,29.13772 4.10117,41.26607 0.49272,1.59633 0.15582,1.78641 -2.30124,1.29836 -1.58316,-0.31446 -13.10628,-1.33214 -25.60691,-2.2615 -19.4001,-1.44231 -31.98831,-1.59155 -85.96202,-1.01913 -58.0288,0.61544 -65.09622,0.87821 -85.86297,3.19249 -35.02635,3.90338 -55.63399,5.47915 -71.83842,5.49313 l -14.86385,0.0128 1.9841,-4.62872 z"
       id="path3040"
       inkscape:connector-curvature="0" />
    <path
       style="fill:#ffffff;fill-opacity:1"
       d=""
       id="path3044"
       inkscape:connector-curvature="0" />
  </g>
</svg>
